<svg width="575" height="678" viewBox="0 0 575 678" fill="none" xmlns="http://www.w3.org/2000/svg">
<g clip-path="url(#clip0_306_2226)">
<circle cx="287.5" cy="338.426" r="286.04" stroke="#D3B6A0" stroke-width="2.91901"/>
<path d="M543.412 138.844C513.046 99.9065 474.195 68.412 429.818 46.7584C385.44 25.1047 336.707 13.8629 287.329 13.889C237.95 13.915 189.229 25.2082 144.875 46.9087C100.52 68.6092 61.7023 100.145 31.377 139.114" stroke="#D3B6A0" stroke-width="2.91901"/>
<path d="M31.3767 538.233C61.7432 577.17 100.594 608.665 144.972 630.318C189.349 651.972 238.082 663.214 287.46 663.188C336.839 663.162 385.56 651.868 429.915 630.168C474.269 608.467 513.087 576.932 543.412 537.963" stroke="#D3B6A0" stroke-width="2.91901"/>
<path d="M305.556 0L305.556 64.8148" stroke="#D3B6A0" stroke-width="2.91901" stroke-linecap="square"/>
<path d="M305.556 612.963L305.556 677.778" stroke="#D3B6A0" stroke-width="2.91901" stroke-linecap="square"/>
<path d="M270.37 0L270.37 64.8148" stroke="#D3B6A0" stroke-width="2.91901" stroke-linecap="square"/>
<path d="M270.37 612.963L270.37 677.778" stroke="#D3B6A0" stroke-width="2.91901" stroke-linecap="square"/>
</g>
<defs>
<clipPath id="clip0_306_2226">
<rect width="575" height="677.778" fill="white"/>
</clipPath>
</defs>
</svg>
