<svg width="67" height="66" viewBox="0 0 67 66" fill="none" xmlns="http://www.w3.org/2000/svg">
<g clip-path="url(#clip0_306_201)">
<path d="M16.5253 45.0525V45.2355V49.0832C16.5253 49.124 16.5482 49.2094 16.646 49.348C16.7402 49.4815 16.8859 49.6391 17.0847 49.8185C17.4818 50.1768 18.0628 50.5974 18.787 51.0583C20.2022 51.9589 21.992 53.0813 23.7666 54.1828L23.6347 54.3952L23.7666 54.1828C24.7289 54.7802 26.7179 55.9938 28.7291 57.0574C29.7349 57.5894 30.7421 58.0816 31.6266 58.4402C32.5212 58.8028 33.257 59.0145 33.7338 59.0147L16.5253 45.0525ZM16.5253 45.0525L16.3509 44.9972L12.543 43.7889V32.5576M16.5253 45.0525L12.543 32.5576M12.543 32.5576H16.0518H16.3381L16.2995 32.2739L13.8289 14.1252C14.1122 13.4003 14.7111 12.8899 15.5862 12.6523L15.5863 12.6522L33.7341 7.71003L51.882 12.6522L51.8821 12.6523C52.7572 12.8899 53.3561 13.4003 53.6394 14.1252L51.1688 32.2739L51.1302 32.5576H51.4165H54.9253V43.7889L51.1174 44.9972L50.943 45.0525V45.2355V49.0832C50.943 49.124 50.9201 49.2094 50.8222 49.3481C50.728 49.4816 50.5823 49.6392 50.3835 49.8186C49.9864 50.177 49.4054 50.5976 48.6814 51.0582C47.027 52.1084 45.3671 53.15 43.7018 54.1827L43.7017 54.1828C42.7393 54.7802 40.7502 55.9938 38.739 57.0574C37.733 57.5894 36.7259 58.0816 35.8413 58.4402C34.9467 58.8028 34.2108 59.0145 33.7339 59.0147L12.543 32.5576ZM33.7999 9.58222L33.7339 9.56413L33.6678 9.58222L15.9001 14.4487L15.6889 14.5065L15.7184 14.7235L18.3913 34.3561H14.5911H14.3411V34.6061V42.2912V42.4742L14.5155 42.5295L18.3235 43.7379V47.9833C18.3235 48.2881 18.5119 48.561 18.7511 48.7979C18.9974 49.0418 19.3427 49.2915 19.7484 49.5496C20.8733 50.2654 22.6787 51.3953 24.7147 52.6591C25.3939 53.0808 27.2795 54.2154 29.1671 55.2454C30.1106 55.7602 31.0582 56.2509 31.8577 56.6135C32.2572 56.7948 32.6235 56.9458 32.936 57.0519C33.2415 57.1557 33.5198 57.2254 33.7336 57.2254C33.9474 57.2254 34.2257 57.1557 34.5312 57.0519C34.8437 56.9458 35.21 56.7948 35.6096 56.6135C36.409 56.2509 37.3567 55.7602 38.3002 55.2454C40.1878 54.2154 42.0734 53.0808 42.7525 52.659C44.7882 51.3953 46.5939 50.2654 47.7188 49.5496C48.1245 49.2915 48.4698 49.0418 48.7161 48.7979C48.9553 48.561 49.1437 48.2881 49.1437 47.9833V43.7379L52.9517 42.5295L53.1261 42.4742V42.2912V34.6061V34.3561H52.8761H49.0761L51.749 14.7235L51.7786 14.5065L51.5674 14.4487L33.7999 9.58222Z" fill="#D9BCA5" stroke="white" stroke-width="0.5"/>
<path d="M33.7336 3.63346L33.7993 3.65139L52.9146 8.86191C54.2468 9.22451 55.6311 10.1788 56.5589 11.4074C57.3114 12.4036 57.7643 13.5979 57.5309 14.7751L55.6413 28.6104H58.6216H58.8716V28.8604V46.4929V46.6759L58.6972 46.7312L54.8892 47.9395V50.1176C54.8892 50.3458 54.8109 50.5781 54.687 50.8064C54.5623 51.036 54.3839 51.2758 54.1645 51.5232C53.7261 52.0177 53.103 52.5662 52.3561 53.1529L52.3561 53.1529C48.5787 56.1193 42.7407 59.5832 38.3576 61.534M33.7336 3.63346L38.2559 61.3056M33.7336 3.63346L33.6678 3.65139M33.7336 3.63346L33.6678 3.65139M38.3576 61.534L38.2559 61.3056M38.3576 61.534C38.3576 61.534 38.3576 61.534 38.3576 61.534L38.2559 61.3056M38.3576 61.534C37.3814 61.9686 36.4779 62.3253 35.6965 62.5737C34.92 62.8206 34.2452 62.9669 33.7333 62.9669C33.2214 62.9669 32.5467 62.8206 31.7703 62.5737C30.9888 62.3253 30.0853 61.9686 29.109 61.534C24.7262 59.5832 18.8879 56.1193 15.1105 53.1529L15.1105 53.1529C14.3637 52.5662 13.7408 52.0177 13.3024 51.5232C13.083 51.2758 12.9046 51.036 12.78 50.8064C12.656 50.5781 12.5777 50.3458 12.5777 50.1176V47.9395M38.2559 61.3056C36.3138 62.1703 34.6783 62.7169 33.7333 62.7169C32.7883 62.7169 31.1531 62.1703 29.2107 61.3056C24.8454 59.3626 19.0251 55.9091 15.2649 52.9563C13.7799 51.7896 12.8277 50.8052 12.8277 50.1176V47.7565M12.5777 47.9395L12.7521 47.9948L12.8277 47.7565M12.5777 47.9395V47.7565H12.8277M12.5777 47.9395L8.84531 46.4929L12.8277 47.7565M33.6678 3.65139L14.5523 8.86192L33.6678 3.65139ZM14.0822 7.13568L14.0823 7.13566L33.7336 1.77902L53.3852 7.13566L53.3853 7.13568C55.0698 7.59442 56.8318 8.79054 57.9919 10.326C59.0431 11.7178 59.6139 13.3838 59.2957 15.0725L59.2954 15.0724L59.2937 15.085L57.7336 26.5282L57.6949 26.8119H57.9813H60.6703V47.9906L56.8623 49.1989L56.6879 49.2542V49.4372V50.1176C56.6879 50.8025 56.3952 51.5147 55.837 52.2629C55.2789 53.0108 54.4686 53.7769 53.4661 54.5641L53.6205 54.7607L53.4661 54.5641C49.5708 57.6233 43.6127 61.1553 39.0885 63.1689L39.1902 63.3973L39.0885 63.1689C36.8623 64.16 34.9489 64.765 33.7336 64.765C32.5183 64.765 30.6049 64.1598 28.3787 63.1689C23.8545 61.1553 17.8964 57.6233 14.0011 54.5641C12.9987 53.7769 12.1884 53.0108 11.6303 52.2629C11.072 51.5147 10.7792 50.8025 10.7792 50.1176V49.4372V49.2542L10.6049 49.1989L6.79688 47.9906V26.8122H9.48586H9.77226L9.73357 26.5285L8.17348 15.0853L8.1738 15.0853L8.17145 15.0728C7.85325 13.3841 8.42409 11.7184 9.47534 10.3263C10.6354 8.79055 12.3976 7.59442 14.0822 7.13568ZM55.6072 28.8604H55.3549L55.389 28.6104L55.6072 28.8604ZM12.0779 28.6104L12.1121 28.8604H11.8597L11.8256 28.6104H12.0779ZM9.93599 14.7751C9.9365 14.7777 9.93702 14.7803 9.93755 14.7829L10.1827 14.7337L9.93495 14.7675L9.93599 14.7751Z" fill="white" stroke="#B3794C" stroke-width="0.5"/>
</g>
<defs>
<clipPath id="clip0_306_201">
<rect width="66" height="66" fill="white" transform="translate(0.833984)"/>
</clipPath>
</defs>
</svg>
