<svg width="67" height="66" viewBox="0 0 67 66" fill="none" xmlns="http://www.w3.org/2000/svg">
<g clip-path="url(#clip0_306_212)">
<g clip-path="url(#clip1_306_212)">
<path d="M66.0465 21.0372C66.0465 11.4943 55.1726 0.620437 45.6298 0.620437C43.7375 0.609013 41.875 1.09198 40.2267 2.02154C38.5784 2.95109 37.2014 4.295 36.2321 5.92024C35.0532 7.80399 34.1869 9.86615 33.6669 12.0267C33.1469 9.86615 32.2806 7.80399 31.1017 5.92024C30.1324 4.295 28.7554 2.95109 27.1071 2.02154C25.4588 1.09198 23.5963 0.609013 21.704 0.620437C12.1612 0.620437 1.28731 11.4943 1.28731 21.0372C1.27588 22.9295 1.75885 24.792 2.68841 26.4403C3.61796 28.0886 4.96187 29.4655 6.58711 30.4348C8.47086 31.6138 10.533 32.48 12.6936 33C10.533 33.52 8.47086 34.3863 6.58711 35.5652C4.96187 36.5346 3.61796 37.9115 2.68841 39.5598C1.75885 41.2081 1.27588 43.0706 1.28731 44.9629C1.28731 54.5058 12.1612 65.3796 21.704 65.3796C23.5963 65.3911 25.4588 64.9081 27.1071 63.9785C28.7554 63.049 30.1324 61.7051 31.1017 60.0798C32.2806 58.1961 33.1469 56.1339 33.6669 53.9734C34.1869 56.1339 35.0532 58.1961 36.2321 60.0798C37.2014 61.7051 38.5784 63.049 40.2267 63.9785C41.875 64.9081 43.7375 65.3911 45.6298 65.3796C55.1726 65.3796 66.0465 54.5058 66.0465 44.9629C66.0579 43.0706 65.575 41.2081 64.6454 39.5598C63.7159 37.9115 62.3719 36.5346 60.7467 35.5652C58.863 34.3863 56.8008 33.52 54.6402 33C56.8008 32.48 58.863 31.6138 60.7467 30.4348C62.3719 29.4655 63.7159 28.0886 64.6454 26.4403C65.575 24.792 66.0579 22.9295 66.0465 21.0372ZM43.5002 31.79C43.1793 31.79 42.8715 31.9175 42.6446 32.1444C42.4177 32.3714 42.2902 32.6791 42.2902 33C42.2902 33.321 42.4177 33.6287 42.6446 33.8556C42.8715 34.0826 43.1793 34.21 43.5002 34.21C50.623 34.21 55.9874 35.3474 59.4238 37.59C60.7126 38.3388 61.7803 39.4153 62.5185 40.7102C63.2566 42.0052 63.6389 43.4724 63.6265 44.9629C63.6265 53.0296 53.7045 62.9596 45.6298 62.9596C44.1393 62.972 42.6721 62.5897 41.3771 61.8516C40.0822 61.1134 39.0056 60.0457 38.2568 58.7569C36.0143 55.3205 34.8769 49.94 34.8769 42.8333C34.8769 42.5124 34.7494 42.2046 34.5225 41.9777C34.2956 41.7508 33.9878 41.6233 33.6669 41.6233C33.346 41.6233 33.0382 41.7508 32.8113 41.9777C32.5844 42.2046 32.4569 42.5124 32.4569 42.8333C32.4569 49.9562 31.3195 55.3205 29.077 58.7569C28.3282 60.0457 27.2517 61.1134 25.9567 61.8516C24.6618 62.5897 23.1945 62.972 21.704 62.9596C13.6374 62.9596 3.70731 53.0376 3.70731 44.9629C3.69492 43.4724 4.07722 42.0052 4.81537 40.7102C5.55351 39.4153 6.62122 38.3388 7.91004 37.59C11.3464 35.3474 16.7269 34.21 23.8336 34.21C24.1546 34.21 24.4623 34.0826 24.6892 33.8556C24.9162 33.6287 25.0436 33.321 25.0436 33C25.0436 32.6791 24.9162 32.3714 24.6892 32.1444C24.4623 31.9175 24.1546 31.79 23.8336 31.79C16.7108 31.79 11.3464 30.6526 7.91004 28.4101C6.62122 27.6613 5.55351 26.5848 4.81537 25.2898C4.07722 23.9949 3.69492 22.5277 3.70731 21.0372C3.70731 12.9705 13.6293 3.04044 21.704 3.04044C23.1945 3.02805 24.6618 3.41035 25.9567 4.1485C27.2517 4.88664 28.3282 5.95435 29.077 7.24317C31.3195 10.6796 32.4569 16.06 32.4569 23.1668C32.4569 23.4877 32.5844 23.7955 32.8113 24.0224C33.0382 24.2493 33.346 24.3768 33.6669 24.3768C33.9878 24.3768 34.2956 24.2493 34.5225 24.0224C34.7494 23.7955 34.8769 23.4877 34.8769 23.1668C34.8769 16.0439 36.0143 10.6796 38.2568 7.24317C39.0056 5.95435 40.0822 4.88664 41.3771 4.1485C42.6721 3.41035 44.1393 3.02805 45.6298 3.04044C53.6964 3.04044 63.6265 12.9624 63.6265 21.0372C63.6389 22.5277 63.2566 23.9949 62.5185 25.2898C61.7803 26.5848 60.7126 27.6613 59.4238 28.4101C55.9874 30.6526 50.6069 31.79 43.5002 31.79Z" fill="#D9BCA5"/>
</g>
<g clip-path="url(#clip2_306_212)">
<path d="M51.8071 41.3522C55.711 37.4483 55.711 28.5515 51.8071 24.6476C51.0377 23.8688 50.0781 23.3045 49.0236 23.0104C47.969 22.7164 46.8559 22.7029 45.7945 22.9712C44.5416 23.2595 43.3436 23.7488 42.247 24.4199C42.9181 23.3233 43.4074 22.1253 43.6957 20.8724C43.964 19.811 43.9505 18.6979 43.6565 17.6433C43.3624 16.5888 42.7981 15.6292 42.0193 14.8598C38.1154 10.9559 29.2186 10.9559 25.3147 14.8598C24.5359 15.6292 23.9715 16.5888 23.6775 17.6433C23.3835 18.6979 23.37 19.811 23.6383 20.8724C23.9266 22.1253 24.4158 23.3233 25.087 24.4199C23.9904 23.7488 22.7924 23.2595 21.5395 22.9712C20.4781 22.7029 19.365 22.7164 18.3104 23.0104C17.2558 23.3045 16.2963 23.8688 15.5269 24.6476C11.623 28.5515 11.623 37.4483 15.5269 41.3522C16.2963 42.131 17.2558 42.6954 18.3104 42.9894C19.365 43.2834 20.4781 43.2969 21.5395 43.0286C22.7924 42.7403 23.9904 42.2511 25.087 41.5799C24.4158 42.6765 23.9266 43.8745 23.6383 45.1274C23.37 46.1888 23.3835 47.3019 23.6775 48.3565C23.9715 49.4111 24.5359 50.3706 25.3147 51.14C29.2186 55.0439 38.1154 55.0439 42.0193 51.14C42.7981 50.3706 43.3624 49.4111 43.6565 48.3565C43.9505 47.3019 43.964 46.1888 43.6957 45.1274C43.4074 43.8745 42.9181 42.6765 42.247 41.5799C43.3436 42.2511 44.5416 42.7403 45.7945 43.0286C46.8559 43.2969 47.969 43.2834 49.0236 42.9894C50.0781 42.6954 51.0377 42.131 51.8071 41.3522ZM38.1847 36.5276C38.0534 36.3963 37.8754 36.3226 37.6897 36.3226C37.504 36.3226 37.326 36.3963 37.1947 36.5276C37.0634 36.6589 36.9897 36.8369 36.9897 37.0226C36.9897 37.2083 37.0634 37.3863 37.1947 37.5176C40.1086 40.4315 41.8378 43.0913 42.3262 45.4145C42.5471 46.2481 42.5435 47.1253 42.3157 47.957C42.0879 48.7887 41.6441 49.5453 41.0293 50.15C37.7293 53.45 29.608 53.4533 26.3047 50.15C25.6899 49.5453 25.246 48.7887 25.0183 47.957C24.7905 47.1253 24.7869 46.2481 25.0078 45.4145C25.4962 43.0913 27.232 40.4249 30.1393 37.5176C30.2706 37.3863 30.3443 37.2083 30.3443 37.0226C30.3443 36.8369 30.2706 36.6589 30.1393 36.5276C30.008 36.3963 29.8299 36.3226 29.6443 36.3226C29.4586 36.3226 29.2806 36.3963 29.1493 36.5276C26.2354 39.4415 23.5756 41.1707 21.2524 41.6591C20.4188 41.88 19.5416 41.8764 18.7099 41.6486C17.8782 41.4209 17.1216 40.977 16.5169 40.3622C13.2169 37.0622 13.2136 28.9409 16.5169 25.6376C17.1216 25.0228 17.8782 24.5789 18.7099 24.3512C19.5416 24.1234 20.4188 24.1198 21.2524 24.3407C23.5756 24.8291 26.242 26.5649 29.1493 29.4722C29.2806 29.6035 29.4586 29.6772 29.6443 29.6772C29.8299 29.6772 30.008 29.6035 30.1393 29.4722C30.2706 29.3409 30.3443 29.1629 30.3443 28.9772C30.3443 28.7915 30.2706 28.6135 30.1393 28.4822C27.2254 25.5683 25.4962 22.9085 25.0078 20.5853C24.7869 19.7517 24.7905 18.8745 25.0183 18.0428C25.246 17.2111 25.6899 16.4545 26.3047 15.8498C29.6047 12.5498 37.726 12.5465 41.0293 15.8498C41.6441 16.4545 42.088 17.2111 42.3157 18.0428C42.5435 18.8745 42.5471 19.7517 42.3262 20.5853C41.8378 22.9085 40.102 25.5749 37.1947 28.4822C37.0634 28.6135 36.9897 28.7915 36.9897 28.9772C36.9897 29.1629 37.0634 29.3409 37.1947 29.4722C37.326 29.6035 37.504 29.6772 37.6897 29.6772C37.8754 29.6772 38.0534 29.6035 38.1847 29.4722C41.0986 26.5583 43.7584 24.8291 46.0816 24.3407C46.9152 24.1198 47.7924 24.1234 48.6241 24.3512C49.4558 24.5789 50.2124 25.0228 50.8171 25.6376C54.1171 28.9376 54.1204 37.0589 50.8171 40.3622C50.2124 40.977 49.4558 41.4209 48.6241 41.6486C47.7924 41.8764 46.9152 41.88 46.0816 41.6591C43.7584 41.1707 41.092 39.4349 38.1847 36.5276Z" fill="#B3794C"/>
</g>
</g>
<defs>
<clipPath id="clip0_306_212">
<rect width="66" height="66" fill="white" transform="translate(0.166992)"/>
</clipPath>
<clipPath id="clip1_306_212">
<rect width="66" height="66" fill="white" transform="translate(0.666992)"/>
</clipPath>
<clipPath id="clip2_306_212">
<rect width="46.6691" height="46.6691" fill="white" transform="translate(33.667) rotate(45)"/>
</clipPath>
</defs>
</svg>
