<svg width="66" height="66" viewBox="0 0 66 66" fill="none" xmlns="http://www.w3.org/2000/svg">
<path d="M42.9557 9.45013L43.1327 9.27361L42.9557 9.45015C45.1688 11.669 46.4718 14.4706 46.4718 16.9296C46.4718 19.1172 45.2451 21.2212 42.9609 22.844L42.9607 22.8441C42.8476 22.9246 42.7123 22.968 42.5735 22.9681C42.4306 22.9681 42.2913 22.9228 42.1759 22.8385C42.0604 22.7542 41.9747 22.6354 41.9312 22.4993C41.8877 22.3631 41.8886 22.2166 41.9338 22.081C41.979 21.9454 42.0662 21.8276 42.1827 21.7448C44.0541 20.4145 45.1258 18.7098 45.1258 16.9289C45.1258 14.8132 43.9156 12.3192 42.0036 10.4019C39.7828 8.17436 36.8905 6.94395 33.8584 6.94395C30.7709 6.94395 27.4757 8.22362 24.8096 10.4437C23.6056 11.4461 22.625 12.5629 21.9438 13.6775C21.2642 14.7895 20.8737 15.9144 20.8737 16.9289C20.8737 18.7085 21.9454 20.4133 23.8169 21.7429C23.9627 21.8464 24.0613 22.0036 24.0912 22.1799C24.121 22.3562 24.0796 22.5371 23.976 22.6829C23.8725 22.8287 23.7153 22.9273 23.539 22.9572C23.3627 22.987 23.1818 22.9456 23.0361 22.8421C20.753 21.2186 19.527 19.1166 19.527 16.9289C19.527 14.5551 21.1521 11.7352 23.9487 9.4077C26.8648 6.98128 30.4805 5.59595 33.8584 5.59595C37.2328 5.59595 40.475 6.96233 42.9557 9.45013ZM12.3597 60.1259V60.3759H12.6097H53.3944H53.6444V60.1259V50.1461C53.6444 44.0021 48.6439 38.9982 42.4965 38.9982H39.8869C39.7081 38.9982 39.5367 38.9272 39.4103 38.8008C39.2839 38.6744 39.2129 38.5029 39.2129 38.3242C39.2129 38.1454 39.2839 37.974 39.4103 37.8476C39.5367 37.7212 39.7081 37.6502 39.8869 37.6502H42.4932C49.3829 37.6502 54.9924 43.2566 54.9924 50.1461V61.0499C54.9924 61.2287 54.9214 61.4001 54.795 61.5265C54.6686 61.6529 54.4972 61.7239 54.3184 61.7239H11.6857C11.507 61.7239 11.3355 61.6529 11.2091 61.5265C11.0827 61.4001 11.0117 61.2287 11.0117 61.0499V50.1461C11.0117 43.2565 16.618 37.6502 23.5076 37.6502H26.116C26.2947 37.6502 26.4661 37.7212 26.5925 37.8476C26.7189 37.974 26.79 38.1454 26.79 38.3242C26.79 38.5029 26.7189 38.6744 26.5925 38.8008C26.4662 38.9272 26.2947 38.9982 26.116 38.9982H23.5076C17.3603 38.9982 12.3597 43.9994 12.3597 50.1461V60.1259Z" fill="#B3794C" stroke="white" stroke-width="0.5"/>
<path d="M33.0014 42.8031L32.9999 42.8031C31.5096 42.8076 30.0429 42.4317 28.7384 41.7111C27.4339 40.9904 26.335 39.9488 25.5455 38.6848L25.5448 38.6837C25.4772 38.5766 25.4414 38.4525 25.4416 38.3258C25.4416 38.2974 25.4434 38.269 25.4469 38.2408C25.4469 38.2408 25.4469 38.2407 25.4469 38.2407L26.3623 30.8925L26.3624 30.8925L26.3629 30.8876C26.3722 30.7985 26.3992 30.7121 26.4424 30.6335C26.4855 30.555 26.5438 30.4858 26.614 30.43C26.6842 30.3743 26.7648 30.3331 26.8511 30.3089C26.9373 30.2847 27.0276 30.2779 27.1165 30.289C27.2055 30.3001 27.2913 30.3288 27.369 30.3734C27.4467 30.4181 27.5147 30.4777 27.5691 30.549C27.6234 30.6203 27.663 30.7016 27.6856 30.7884C27.7081 30.8751 27.7131 30.9655 27.7003 31.0542L27.7002 31.0542L27.6996 31.0591L26.8271 38.0709L26.8153 38.1657L26.8697 38.2442C27.5564 39.235 28.4729 40.0446 29.5408 40.6038C30.6087 41.1631 31.7962 41.4552 33.0017 41.4552C34.2071 41.4552 35.3947 41.1631 36.4626 40.6038C37.5305 40.0446 38.447 39.235 39.1336 38.2442L39.188 38.1657L39.1762 38.0709L38.3007 31.034C38.283 30.8592 38.3342 30.6844 38.4435 30.5468C38.5533 30.4086 38.7129 30.3189 38.888 30.2971C39.0631 30.2753 39.2398 30.3231 39.3801 30.4301C39.5198 30.5367 39.6123 30.6936 39.638 30.8674L40.5558 38.2409L40.5558 38.2411C40.5593 38.2689 40.5611 38.2968 40.5611 38.3248C40.5611 38.4517 40.5252 38.576 40.4576 38.6834L40.4572 38.6841C39.6675 39.9482 38.5683 40.99 37.2636 41.7108C35.959 42.4315 34.492 42.8075 33.0014 42.8031ZM17.0148 59.724C16.8361 59.724 16.6646 59.653 16.5382 59.5266C16.4118 59.4002 16.3408 59.2287 16.3408 59.05V52.5241C16.3408 52.3453 16.4118 52.1739 16.5382 52.0475C16.6646 51.9211 16.8361 51.8501 17.0148 51.8501C17.1936 51.8501 17.365 51.9211 17.4914 52.0475C17.6178 52.1739 17.6888 52.3453 17.6888 52.5241V59.05C17.6888 59.2287 17.6178 59.4002 17.4914 59.5266C17.365 59.653 17.1936 59.724 17.0148 59.724ZM48.9865 59.724C48.8078 59.724 48.6363 59.653 48.5099 59.5266C48.3836 59.4002 48.3125 59.2287 48.3125 59.05V52.5241C48.3125 52.3453 48.3836 52.1739 48.5099 52.0475C48.6363 51.9211 48.8078 51.8501 48.9865 51.8501C49.1653 51.8501 49.3367 51.9211 49.4631 52.0475C49.5895 52.1739 49.6605 52.3453 49.6605 52.5241V59.05C49.6605 59.2287 49.5895 59.4002 49.4631 59.5266C49.3367 59.653 49.1653 59.724 48.9865 59.724Z" fill="#B3794C" stroke="white" stroke-width="0.5"/>
<path d="M33.0006 59.724H33.0009C33.0916 59.7241 33.1813 59.706 33.2648 59.6707C33.3482 59.6354 33.4237 59.5836 33.4867 59.5184L33.4985 59.5062L33.5118 59.4957L41.2849 53.3769C41.3964 53.2547 41.4592 53.0955 41.461 52.9297C41.4628 52.7585 41.3993 52.593 41.2836 52.4669C41.2835 52.4668 41.2835 52.4668 41.2835 52.4668L38.167 49.0751L37.9911 48.8837L38.1893 48.7154L42.4331 45.1131L42.4334 45.1129C42.5364 45.0257 42.6108 44.9095 42.647 44.7795C42.6832 44.6494 42.6796 44.5115 42.6365 44.3836L42.6337 44.3752L42.6315 44.3667L41.5219 40.1013C41.4935 40.0204 41.45 39.9455 41.3935 39.8809C41.3353 39.8142 41.2645 39.7596 41.1852 39.7202C41.1059 39.6809 41.0196 39.6576 40.9313 39.6516C40.843 39.6456 40.7543 39.657 40.6704 39.6853C40.5865 39.7136 40.509 39.7581 40.4423 39.8163C40.3756 39.8745 40.321 39.9453 40.2817 40.0246C40.2423 40.1039 40.219 40.1902 40.213 40.2785C40.207 40.3669 40.2185 40.4555 40.2467 40.5394L40.25 40.5491L40.2524 40.559L41.1664 44.2389L41.2038 44.3895L41.0854 44.4899L36.5842 48.3047C36.515 48.3634 36.4583 48.4355 36.4175 48.5167C36.3768 48.5979 36.3529 48.6865 36.3473 48.7771C36.3417 48.8678 36.3545 48.9587 36.3848 49.0442C36.4152 49.1298 36.4626 49.2084 36.5241 49.2753L36.5242 49.2754L39.7041 52.7371L39.8873 52.9365L39.6739 53.1032L33.1544 58.197L33.0005 58.3173L32.8466 58.197L26.3271 53.1026L26.1138 52.9359L26.2969 52.7365L29.4768 49.2748L29.4769 49.2747C29.5383 49.2079 29.5856 49.1293 29.6159 49.0438C29.6462 48.9582 29.659 48.8674 29.6533 48.7768C29.6477 48.6862 29.6239 48.5977 29.5832 48.5166C29.5425 48.4354 29.4859 48.3633 29.4167 48.3046L24.9188 44.4912L24.8005 44.3908L24.8379 44.2402L25.7519 40.5603L25.7543 40.5507L25.7574 40.5413C25.7856 40.457 25.7969 40.3681 25.7906 40.2795C25.7844 40.1909 25.7608 40.1044 25.7212 40.025C25.6815 39.9455 25.6266 39.8746 25.5596 39.8164C25.4926 39.7581 25.4147 39.7136 25.3305 39.6855C25.2463 39.6573 25.1573 39.646 25.0687 39.6522C24.9801 39.6585 24.8936 39.6821 24.8142 39.7217C24.7347 39.7613 24.6638 39.8163 24.6056 39.8833C24.549 39.9484 24.5055 40.0236 24.4772 40.105L23.3675 44.3707L23.3653 44.3793L23.3625 44.3876C23.3194 44.5155 23.3156 44.6534 23.3518 44.7835C23.3879 44.9135 23.4622 45.0296 23.5651 45.1169C23.5651 45.117 23.5651 45.117 23.5652 45.117L27.8115 48.7152L28.0102 48.8836L27.8339 49.0753L24.7161 52.4636L33.0006 59.724ZM33.0006 59.724C32.9096 59.7239 32.8196 59.7055 32.736 59.6698C32.6523 59.634 32.5768 59.5817 32.5139 59.516L32.5017 59.5033M33.0006 59.724L32.5017 59.5033M32.5017 59.5033L32.4879 59.4924M32.5017 59.5033L32.4879 59.4924M32.4879 59.4924L24.7147 53.3742M32.4879 59.4924L24.7147 53.3742M24.7147 53.3742C24.603 53.252 24.5401 53.0927 24.5384 52.9267C24.5366 52.7554 24.6001 52.5899 24.716 52.4637L24.7147 53.3742ZM32.6377 59.8997C32.523 59.8507 32.4195 59.779 32.3333 59.6889L33.0005 59.974C32.8758 59.9739 32.7524 59.9487 32.6377 59.8997Z" fill="#D9BCA5" stroke="white" stroke-width="0.5"/>
<path d="M27.5096 18.7165C30.641 17.8604 33.2173 15.8603 35.1686 12.7943C35.2356 12.6892 35.3303 12.6047 35.4423 12.5502L35.333 12.3254L35.4423 12.5502C35.5544 12.4957 35.6793 12.4733 35.8033 12.4855C35.9273 12.4978 36.0455 12.5441 36.1447 12.6194C36.244 12.6948 36.3204 12.7961 36.3655 12.9123L36.3655 12.9123L36.3664 12.9146C36.3799 12.9485 36.9331 14.3293 37.9687 15.6044C38.9982 16.8722 40.5658 18.1056 42.5966 17.6724L42.6045 17.6707L42.6123 17.6685C42.7146 17.6397 42.8222 17.6354 42.9265 17.6561C43.0307 17.6768 43.1286 17.7218 43.2121 17.7876L43.3667 17.5911L43.2121 17.7876C43.2956 17.8533 43.3624 17.9378 43.407 18.0343C43.4516 18.1307 43.4728 18.2363 43.4688 18.3425L43.4686 18.3425V18.3519V18.808C43.4686 23.3042 42.4299 27.2 40.4845 30.0862L40.4845 30.0863C38.5506 32.9567 35.8896 34.5122 33.0002 34.5122C30.2108 34.5122 27.6209 33.0686 25.7137 30.4083L25.7137 30.4083C23.8194 27.7665 22.7229 24.1539 22.5521 19.9403L22.5511 19.9174L22.546 19.895C22.5216 19.7874 22.5239 19.6754 22.5529 19.5689C22.5819 19.4624 22.6365 19.3646 22.7121 19.2842C22.7877 19.2037 22.8819 19.1431 22.9864 19.1076C23.0909 19.072 23.2026 19.0627 23.3115 19.0805L23.3315 19.0837H23.3366M27.5096 18.7165L27.4437 18.4753L27.5096 18.7165C27.5096 18.7165 27.5096 18.7165 27.5096 18.7165ZM27.5096 18.7165C26.3327 19.0383 25.2927 19.1298 24.5435 19.1409C24.1688 19.1464 23.8663 19.1318 23.6553 19.1156C23.5497 19.1075 23.4671 19.0991 23.4098 19.0926C23.3811 19.0893 23.359 19.0866 23.3438 19.0846L23.3366 19.0837M23.3366 19.0837H23.3517C23.3434 19.0837 23.3371 19.0833 23.3353 19.0832L23.3293 19.0827L23.3255 19.0823C23.3251 19.0823 23.3254 19.0823 23.3272 19.0825L23.3366 19.0837ZM24.2006 20.4911L23.9284 20.488L23.9485 20.7595C24.2102 24.3065 25.1852 27.3587 26.8089 29.6226C28.4351 31.8901 30.6312 33.1642 33.0002 33.1642C35.4577 33.1642 37.7158 31.785 39.3686 29.3322C41.0723 26.8063 42.0334 23.2821 42.1172 19.3671L42.1228 19.1057L41.8615 19.1118C40.1195 19.1524 38.4572 18.3017 37.0074 16.5621C36.5622 16.0227 36.1642 15.446 35.8178 14.8383L35.6315 14.5115L35.4023 14.8099C32.8748 18.1009 29.9136 19.472 27.7727 20.0415L27.7723 20.0416C26.6078 20.3536 25.4061 20.5048 24.2006 20.4911Z" fill="#B3794C" stroke="white" stroke-width="0.5"/>
</svg>
