<svg width="67" height="66" viewBox="0 0 67 66" fill="none" xmlns="http://www.w3.org/2000/svg">
<g clip-path="url(#clip0_306_179)">
<path d="M12.349 34.5208L12.3488 34.5219C11.9721 36.5451 11.5922 38.5683 11.2091 40.5915L11.209 40.5918L10.2985 45.4319L10.2981 45.434C10.2116 45.915 10.2788 46.411 10.4903 46.8515C10.7016 47.2919 11.0463 47.6545 11.4754 47.8879C17.6413 51.2582 24.5567 53.0216 31.5836 53.0154C38.6103 53.0091 45.5224 51.2336 51.6821 47.8524C52.1017 47.6244 52.4373 47.2681 52.6398 46.8355C52.842 46.4034 52.9007 45.918 52.8073 45.4502C52.8072 45.4495 52.807 45.4488 52.8069 45.4482L50.9838 35.7161C50.9448 35.4735 51.0019 35.2252 51.143 35.0239C51.2847 34.8218 51.4999 34.6832 51.7425 34.6378C51.9851 34.5924 52.2358 34.6437 52.4411 34.7808C52.6455 34.9174 52.7886 35.1283 52.84 35.3687L54.6637 45.1008L54.6642 45.1029C54.8328 45.9634 54.7222 46.8551 54.3485 47.6483C53.9748 48.4415 53.3576 49.0946 52.5868 49.5124L52.5858 49.5129C46.1367 53.0423 38.9047 54.8963 31.5529 54.9048C24.2184 54.8984 17.0023 53.0547 10.5637 49.542C9.78612 49.1167 9.16243 48.4571 8.78131 47.657C8.40029 46.857 8.28112 45.9574 8.44073 45.0858C8.44077 45.0856 8.44081 45.0854 8.44085 45.0852L9.35276 40.2416C9.35277 40.2415 9.35278 40.2415 9.35278 40.2415C9.73379 38.2212 10.1132 36.1978 10.491 34.1711C10.7976 32.5575 11.1043 30.9317 11.395 29.32C11.4435 29.0779 11.5849 28.8644 11.789 28.7253C11.9936 28.5857 12.2449 28.5322 12.4886 28.5761C12.7324 28.62 12.9491 28.7579 13.0922 28.9601C13.2348 29.1618 13.2928 29.4113 13.2537 29.6551C12.9635 31.2707 12.6571 32.9043 12.349 34.5208Z" fill="#B3794C" stroke="white" stroke-width="0.53264"/>
<path d="M64.5116 22.7657C64.5123 22.6313 64.4724 22.4999 64.3971 22.3886L64.1765 22.5378L64.3971 22.3886C64.3219 22.2774 64.2149 22.1916 64.0901 22.1422C64.0899 22.1422 64.0897 22.1421 64.0895 22.142L34.6163 10.354C34.6161 10.354 34.616 10.3539 34.6158 10.3538C34.1555 10.1683 33.6638 10.0724 33.1675 10.0715L32.9007 10.0711V10.0824L64.2453 23.8073L64.5116 23.8055L64.5116 22.7657ZM64.5116 22.7657L64.2453 22.7643H64.5116V22.7657ZM31.0172 37.974L31.017 37.9739L1.54182 26.1835L1.54106 26.1832C1.06548 25.9947 0.657733 25.6672 0.370956 25.2436C0.0841796 24.8199 -0.068323 24.3197 -0.066673 23.8081V23.8073L-0.0666721 22.7643L-0.0666739 22.7636C-0.0680286 22.2523 0.0846112 21.7524 0.371369 21.329C0.658128 20.9057 1.06572 20.5785 1.54106 20.39L1.54182 20.3897L31.017 8.59935L31.0175 8.59915C32.3968 8.04421 33.9372 8.04421 35.3165 8.59915L35.317 8.59935L64.7922 20.3897L64.7929 20.39C65.2683 20.5785 65.6759 20.9057 65.9626 21.329C66.2494 21.7524 66.402 22.2523 66.4007 22.7636V22.7643V23.8073V23.8081C66.4023 24.3197 66.2498 24.8199 65.963 25.2436C65.6763 25.6672 65.2685 25.9947 64.7929 26.1832L64.7922 26.1835L35.317 37.9739L35.3166 37.974C34.6335 38.2486 33.9038 38.3885 33.1668 38.3891C32.4303 38.389 31.7007 38.2481 31.0172 37.974Z" fill="white" stroke="#B3794C" stroke-width="0.53264"/>
<path d="M57.1267 55.4301L57.1268 55.4297L59.693 43.9029C59.6932 43.9023 59.6933 43.9017 59.6934 43.9012C59.7434 43.6587 59.6962 43.4062 59.5619 43.1981C59.4273 42.9895 59.216 42.8423 58.9736 42.7884C58.7313 42.7344 58.4775 42.778 58.2671 42.9098C58.0572 43.0412 57.9073 43.2498 57.8497 43.4906C57.8496 43.4912 57.8495 43.4918 57.8493 43.4923L55.2848 55.0191C55.2016 55.3932 55.2034 55.7812 55.2902 56.1545C55.3771 56.5277 55.5466 56.8767 55.7863 57.1757C56.0261 57.4746 56.3299 57.7159 56.6753 57.8818C57.0208 58.0476 57.3991 58.1337 57.7823 58.1338H63.4426C63.8258 58.1337 64.2041 58.0476 64.5496 57.8818C64.8951 57.7159 65.1989 57.4746 65.4386 57.1757C65.6783 56.8767 65.8479 56.5277 65.9347 56.1545C66.0215 55.7812 66.0233 55.3932 65.9401 55.0191L63.3748 43.4887L63.374 43.4852L63.374 43.4852C63.3485 43.3627 63.2989 43.2464 63.2281 43.1433C63.1573 43.0401 63.0667 42.952 62.9615 42.8841C62.8564 42.8163 62.7388 42.77 62.6157 42.748C62.4925 42.7259 62.3662 42.7286 62.244 42.7558C62.1219 42.783 62.0064 42.8342 61.9042 42.9064C61.802 42.9786 61.7152 43.0704 61.6488 43.1765C61.5824 43.2825 61.5377 43.4007 61.5173 43.5242C61.497 43.6477 61.5014 43.774 61.5303 43.8957L61.5311 43.8993L61.5311 43.8993L64.0965 55.4298L64.0966 55.4301C64.1182 55.528 64.1176 55.6295 64.0948 55.7271C64.0721 55.8247 64.0277 55.916 63.9649 55.9941L63.7572 55.8274L63.9649 55.9942C63.9022 56.0723 63.8227 56.1354 63.7323 56.1788C63.6419 56.2222 63.5429 56.2447 63.4427 56.2447H63.4426H57.7833H57.7823V55.9784C57.7218 55.9786 57.662 55.9652 57.6073 55.9392L57.1267 55.4301ZM57.1267 55.4301C57.105 55.5282 57.1057 55.6299 57.1286 55.7277L57.3879 55.6669L57.1267 55.4301ZM60.6112 38.7603H60.6111C60.3878 38.7601 60.1718 38.6808 60.0014 38.5365C59.8311 38.3922 59.7173 38.1921 59.6804 37.9719L58.2016 29.0975L58.1718 28.9188L57.9947 28.8809L36.1979 24.2103L36.1979 24.2103C35.9529 24.1578 35.7387 24.0102 35.6026 23.7999C35.4664 23.5895 35.4194 23.3337 35.4718 23.0887C35.5243 22.8437 35.6719 22.6296 35.8822 22.4934C36.0925 22.3573 36.3483 22.3103 36.5933 22.3627C36.5933 22.3627 36.5933 22.3627 36.5933 22.3627L59.1957 27.206L59.1958 27.2061C59.3811 27.2457 59.5502 27.3401 59.6812 27.4771C59.8121 27.6141 59.8988 27.7873 59.93 27.9742C59.93 27.9743 59.93 27.9743 59.93 27.9743L61.5445 37.661C61.5856 37.908 61.527 38.1612 61.3816 38.365C61.2362 38.5686 61.0161 38.7062 60.7694 38.7477C60.7171 38.7561 60.6642 38.7604 60.6112 38.7603Z" fill="#D9BCA5" stroke="white" stroke-width="0.53264"/>
<path d="M60.3309 45.7731C59.3828 45.7731 58.4559 45.4919 57.6676 44.9652C56.8793 44.4384 56.2648 43.6898 55.902 42.8138C55.5392 41.9379 55.4443 40.974 55.6292 40.0441C55.8142 39.1142 56.2708 38.26 56.9412 37.5896C57.6116 36.9192 58.4658 36.4626 59.3957 36.2777C60.3256 36.0927 61.2894 36.1876 62.1654 36.5505C63.0413 36.9133 63.79 37.5277 64.3167 38.316C64.8435 39.1044 65.1246 40.0312 65.1246 40.9793C65.1233 42.2503 64.6178 43.4688 63.7191 44.3675C62.8203 45.2662 61.6018 45.7717 60.3309 45.7731ZM60.3309 38.8003C59.8999 38.8003 59.4786 38.9281 59.1203 39.1676C58.762 39.407 58.4827 39.7473 58.3178 40.1455C58.1528 40.5436 58.1097 40.9817 58.1938 41.4044C58.2778 41.8271 58.4854 42.2154 58.7901 42.5201C59.0948 42.8248 59.4831 43.0323 59.9058 43.1164C60.3285 43.2005 60.7666 43.1574 61.1647 42.9924C61.5629 42.8275 61.9032 42.5482 62.1426 42.1899C62.3821 41.8316 62.5099 41.4103 62.5099 40.9793C62.5094 40.4016 62.2797 39.8476 61.8711 39.439C61.4626 39.0305 60.9086 38.8008 60.3309 38.8003Z" fill="#D9BCA5"/>
<circle cx="60.331" cy="40.9792" r="3.72848" fill="white"/>
</g>
<defs>
<clipPath id="clip0_306_179">
<rect width="66" height="66" fill="white" transform="translate(0.166992)"/>
</clipPath>
</defs>
</svg>
