<svg width="67" height="66" viewBox="0 0 67 66" fill="none" xmlns="http://www.w3.org/2000/svg">
<g clip-path="url(#clip0_306_229)">
<g clip-path="url(#clip1_306_229)">
<path d="M67.334 22.506C67.334 10.6491 56.4836 1.00317 43.1483 1.00317C37.6406 1.00317 32.2517 2.69277 27.9716 5.76177C23.8499 8.71857 20.9129 12.8337 19.6589 17.3778H19.6457C8.86458 19.767 1.33398 28.347 1.33398 38.2437C1.33398 44.3883 4.29078 50.2293 9.45529 54.3147L9.42558 64.3368C9.42558 64.5711 9.55099 64.7922 9.75229 64.9077C9.85246 64.9657 9.96607 64.9966 10.0818 64.9971C10.1976 64.9977 10.3115 64.968 10.4123 64.911L20.3024 59.2449C22.0201 59.5811 23.7661 59.7513 25.5164 59.7531C31.0307 59.7531 36.4229 58.0602 40.703 54.9879C44.6927 52.1235 47.5703 48.1767 48.8837 43.8042L58.2557 49.1733C58.358 49.2327 58.4702 49.2591 58.5824 49.2591C58.6946 49.2591 58.8134 49.2294 58.9157 49.17C59.1203 49.0512 59.2457 48.8334 59.2424 48.5958L59.2094 38.5803C64.3739 34.4949 67.3307 28.6572 67.3307 22.5126L67.334 22.506ZM58.1501 37.7289C57.9884 37.8543 57.8927 38.049 57.8927 38.2536L57.9224 47.4507L48.8078 42.2268C48.6692 42.1476 48.5042 42.1212 48.3458 42.1542C46.637 42.508 44.8966 42.6871 43.1516 42.6888C38.7032 42.6888 34.4528 41.5767 30.7634 39.468L35.5748 38.3295C35.9312 38.247 36.149 37.8906 36.0665 37.5342C36.0467 37.4496 36.0104 37.3697 35.9597 37.2992C35.909 37.2287 35.8448 37.1689 35.7709 37.1232C35.697 37.0775 35.6149 37.0469 35.5291 37.033C35.4433 37.0192 35.3557 37.0224 35.2712 37.0425L28.9022 38.5473C28.7318 38.588 28.5844 38.6945 28.4923 38.8435C28.4001 38.9925 28.3707 39.1719 28.4105 39.3426L29.9153 45.7116C29.9555 45.8816 30.0614 46.0287 30.2098 46.1208C30.3582 46.213 30.5371 46.2426 30.7073 46.2033C30.8777 46.1626 31.0251 46.0561 31.1172 45.9071C31.2093 45.758 31.2387 45.5786 31.199 45.408L30.0572 40.5867C33.9578 42.8274 38.4458 44.0088 43.145 44.0088C44.6135 44.0088 46.0919 43.8801 47.5505 43.6392C44.8412 52.2654 35.7563 58.4265 25.5164 58.4265C23.7839 58.4265 22.0382 58.2483 20.3189 57.8985C20.1605 57.8655 19.9988 57.8919 19.8569 57.9711L10.7423 63.195L10.7687 53.9946C10.7687 53.79 10.673 53.5953 10.5113 53.4699C5.51508 49.6287 2.64738 44.0781 2.64738 38.247C2.64738 28.974 9.75229 20.922 19.9295 18.6714C21.763 18.2662 23.6353 18.0626 25.5131 18.0642C29.5259 18.0642 33.4166 18.9816 36.8618 20.724L32.156 21.8361C31.9856 21.8768 31.8382 21.9833 31.7461 22.1323C31.6539 22.2813 31.6245 22.4607 31.6643 22.6314C31.7045 22.8013 31.8104 22.9485 31.9588 23.0406C32.1073 23.1328 32.2861 23.1624 32.4563 23.1231L38.822 21.6183C38.9066 21.5985 38.9864 21.5622 39.0569 21.5115C39.1275 21.4607 39.1873 21.3966 39.233 21.3227C39.2786 21.2488 39.3093 21.1666 39.3231 21.0809C39.337 20.9951 39.3338 20.9075 39.3137 20.823L37.8089 14.454C37.7679 14.2837 37.6613 14.1366 37.5124 14.0445C37.3635 13.9524 37.1842 13.9229 37.0136 13.9623C36.929 13.9821 36.8492 14.0184 36.7786 14.0691C36.7081 14.1198 36.6483 14.1839 36.6026 14.2578C36.5569 14.3317 36.5263 14.4139 36.5124 14.4997C36.4986 14.5854 36.5018 14.6731 36.5219 14.7576L37.6835 19.6647C33.9974 17.7507 29.8196 16.7409 25.5098 16.7409C24.0248 16.7409 22.553 16.8597 21.1076 17.0973C23.8367 8.48097 32.9216 2.32317 43.1483 2.32317C55.7576 2.32317 66.014 11.3784 66.014 22.506C66.014 28.3404 63.1463 33.8877 58.1501 37.7289Z" fill="#D9BCA5"/>
</g>
<path d="M19.6457 17.4325C8.86458 19.8217 1.33398 28.4017 1.33398 38.2984C1.33398 44.443 4.29078 50.284 9.45529 54.3694L9.42558 64.3915C9.42558 64.6258 9.55099 64.8469 9.75229 64.9624C9.85246 65.0205 9.96607 65.0513 10.0818 65.0519C10.1976 65.0525 10.3115 65.0228 10.4123 64.9657L20.3024 59.2996C22.0201 59.6358 23.7661 59.806 25.5164 59.8078C31.0307 59.8078 36.4229 58.1149 40.703 55.0426C44.6927 52.1782 47.5703 48.2314 48.8837 43.8589L19.6589 17.4325L19.6457 17.4325ZM19.6457 17.4325L48.8837 43.8589L48.334 43.5L47.5505 43.6939C44.8412 52.3201 35.7563 58.4812 25.5164 58.4812C23.7839 58.4812 22.0382 58.303 20.3189 57.9532C20.1605 57.9202 19.9988 57.9466 19.8569 58.0258L10.7423 63.2497L10.7687 54.0493C10.7687 53.8447 10.673 53.65 10.5113 53.5246C5.51508 49.6834 2.64738 44.1328 2.64738 38.3017C2.64738 29.0287 9.75229 20.9767 19.9295 18.7261C21.763 18.321 23.6353 18.1174 25.5131 18.1189C29.5259 18.1189 33.4166 19.0363 36.8618 20.7787L32.156 21.8908C31.9856 21.9315 31.8382 22.038 31.7461 22.187C31.6539 22.3361 31.6245 22.5155 31.6643 22.6861C31.7045 22.8561 31.8104 23.0033 31.9588 23.0954C32.1073 23.1875 32.2861 23.2172 32.4563 23.1778L38.822 21.673C38.9066 21.6532 38.9864 21.6169 39.0569 21.5662C39.1275 21.5155 39.1873 21.4514 39.233 21.3775C39.2786 21.3036 39.3093 21.2214 39.3231 21.1357C39.337 21.0499 39.3338 20.9623 39.3137 20.8777L37.8089 14.5087C37.7679 14.3385 37.6613 14.1914 37.5124 14.0993C37.3635 14.0072 37.1842 13.9776 37.0136 14.017C36.929 14.0368 36.8492 14.0731 36.7786 14.1239C36.7081 14.1746 36.6483 14.2387 36.6026 14.3126C36.5569 14.3865 36.5263 14.4687 36.5124 14.5544C36.4986 14.6402 36.5018 14.7278 36.5219 14.8123L37.6835 19.7194C33.9974 17.8054 29.8196 16.7956 25.5098 16.7956C24.0248 16.7956 21.1043 17.1949 19.6589 17.4325L19.6457 17.4325Z" fill="#B3794C"/>
</g>
<defs>
<clipPath id="clip0_306_229">
<rect width="66" height="66" fill="white" transform="translate(0.833984)"/>
</clipPath>
<clipPath id="clip1_306_229">
<rect width="66" height="66" fill="white" transform="translate(1.33398)"/>
</clipPath>
</defs>
</svg>
