<svg width="67" height="66" viewBox="0 0 67 66" fill="none" xmlns="http://www.w3.org/2000/svg">
<g clip-path="url(#clip0_306_222)">
<mask id="path-1-inside-1_306_222" fill="white">
<path d="M64.0644 46.5093H1.93494C1.81127 46.5078 1.68854 46.5309 1.57387 46.5773C1.4592 46.6236 1.35487 46.6922 1.26691 46.7792C1.17895 46.8661 1.10912 46.9697 1.06146 47.0838C1.0138 47.1979 0.989258 47.3204 0.989258 47.4441C0.989258 47.5677 1.0138 47.6902 1.06146 47.8043C1.10912 47.9184 1.17895 48.022 1.26691 48.1089C1.35487 48.1959 1.4592 48.2645 1.57387 48.3108C1.68854 48.3572 1.81127 48.3803 1.93494 48.3789H64.0644C64.1881 48.3803 64.3108 48.3572 64.4255 48.3108C64.5402 48.2645 64.6445 48.1959 64.7325 48.1089C64.8204 48.022 64.8903 47.9184 64.9379 47.8043C64.9856 47.6902 65.0101 47.5677 65.0101 47.4441C65.0101 47.3204 64.9856 47.1979 64.9379 47.0838C64.8903 46.9697 64.8204 46.8661 64.7325 46.7792C64.6445 46.6922 64.5402 46.6236 64.4255 46.5773C64.3108 46.5309 64.1881 46.5078 64.0644 46.5093ZM0.999943 40.1714C0.999959 40.2942 1.02416 40.4157 1.07116 40.5292C1.11815 40.6426 1.18703 40.7456 1.27386 40.8324C1.36068 40.9192 1.46375 40.988 1.57718 41.035C1.69061 41.0819 1.81217 41.1061 1.93494 41.106H64.0644C64.3124 41.106 64.5501 41.0076 64.7255 40.8323C64.9008 40.6571 64.9993 40.4193 64.9994 40.1714C64.9994 39.9235 64.9009 39.6857 64.7256 39.5103C64.5502 39.335 64.3124 39.2365 64.0644 39.2364H60.6322L64.9609 20.0763C65.0907 19.5012 64.8778 18.8908 64.4179 18.5217L55.3505 11.243C55.2369 11.1513 55.1061 11.0832 54.9659 11.0428C54.8256 11.0024 54.6786 10.9904 54.5336 11.0077C54.3887 11.0238 54.2485 11.0687 54.1212 11.1398C53.9939 11.2109 53.8821 11.3067 53.7924 11.4217L50.0108 16.2302L46.5342 14.2669C46.366 14.1726 46.1762 14.1237 45.9834 14.125C45.7906 14.1264 45.6014 14.1779 45.4346 14.2746C45.2683 14.3723 45.1304 14.5116 45.0344 14.6789C44.9384 14.8461 44.8877 15.0355 44.8873 15.2284V18.5578H21.112V15.2282C21.112 14.8371 20.902 14.472 20.5648 14.2746C20.3981 14.1778 20.209 14.1262 20.0163 14.1248C19.8235 14.1235 19.6337 14.1724 19.4657 14.2669L15.9886 16.2302L12.2074 11.4222C12.1176 11.3072 12.0057 11.2113 11.8784 11.1401C11.751 11.0689 11.6107 11.0239 11.4657 11.0077C11.3206 10.9904 11.1736 11.0024 11.0331 11.0429C10.8927 11.0834 10.7619 11.1515 10.6482 11.2434L1.58106 18.5222C1.12157 18.8915 0.908193 19.5013 1.03807 20.0765L5.36666 39.2366H1.93494C1.81215 39.2365 1.69056 39.2607 1.57711 39.3077C1.46366 39.3547 1.36058 39.4235 1.27376 39.5104C1.18693 39.5972 1.11806 39.7003 1.07108 39.8137C1.0241 39.9272 0.999926 40.0486 0.999943 40.1714ZM46.7575 16.5407L55.2833 21.3552L54.1816 32.9064C54.1692 33.0361 54.184 33.1671 54.2251 33.2908C54.2663 33.4145 54.3329 33.5283 54.4206 33.6247C54.5084 33.7211 54.6153 33.7981 54.7346 33.8507C54.8539 33.9034 54.9829 33.9304 55.1133 33.9302C55.3457 33.93 55.5698 33.8432 55.7417 33.6868C55.9136 33.5303 56.021 33.3154 56.043 33.084L57.164 21.3288C57.1925 21.0298 57.1337 20.7289 56.9948 20.4625C56.8559 20.1961 56.6429 19.9757 56.3814 19.8278L51.6583 17.1609L54.7836 13.1859L63.0936 19.8566L58.7157 39.2364H55.456L55.6739 36.9532C55.693 36.7088 55.6153 36.4666 55.4575 36.279C55.2998 36.0913 55.0747 35.973 54.8306 35.9497C54.5866 35.9264 54.3431 35.9999 54.1527 36.1543C53.9623 36.3088 53.8402 36.5318 53.8127 36.7755L53.5777 39.2364H49.0333V20.1341C49.0333 19.2648 48.3262 18.5583 47.4576 18.5583H46.7575V16.5407ZM19.2421 18.5578H18.4988C17.6297 18.5578 16.9232 19.2648 16.9232 20.1341V22.7707C16.9272 23.016 17.0275 23.2499 17.2024 23.422C17.3773 23.5941 17.6128 23.6905 17.8582 23.6905C18.1035 23.6905 18.3391 23.5941 18.514 23.422C18.6889 23.2499 18.7892 23.016 18.7932 22.7707V20.428H47.1633V39.2364H18.7933V26.6978C18.7905 26.4517 18.6907 26.2166 18.5156 26.0436C18.3406 25.8705 18.1044 25.7735 17.8582 25.7735C17.6121 25.7735 17.3759 25.8705 17.2009 26.0436C17.0258 26.2166 16.926 26.4517 16.9232 26.6978V39.2364H12.4217L10.7161 21.3552L19.2419 16.5407L19.2421 18.5578ZM2.90555 19.8566L11.2155 13.1858L14.3411 17.161L9.618 19.8278C9.35655 19.9758 9.1435 20.1962 9.00454 20.4626C8.86558 20.7289 8.80666 21.0297 8.83488 21.3288L10.5434 39.2364H7.28364L2.90555 19.8566ZM26.7869 69.0618C26.6641 69.0618 26.5425 69.0859 26.4291 69.1329C26.3157 69.1798 26.2126 69.2487 26.1258 69.3355C26.039 69.4223 25.9701 69.5253 25.9231 69.6387C25.8761 69.7521 25.8519 69.8737 25.8519 69.9964V73.508C25.8559 73.7534 25.9562 73.9873 26.1311 74.1594C26.306 74.3314 26.5415 74.4279 26.7869 74.4279C27.0322 74.4279 27.2678 74.3314 27.4427 74.1594C27.6176 73.9873 27.7178 73.7534 27.7219 73.508V69.9964C27.7218 69.7485 27.6232 69.5108 27.4479 69.3355C27.2725 69.1603 27.0348 69.0618 26.7869 69.0618Z"/>
</mask>
<path d="M64.0644 46.5093H1.93494C1.81127 46.5078 1.68854 46.5309 1.57387 46.5773C1.4592 46.6236 1.35487 46.6922 1.26691 46.7792C1.17895 46.8661 1.10912 46.9697 1.06146 47.0838C1.0138 47.1979 0.989258 47.3204 0.989258 47.4441C0.989258 47.5677 1.0138 47.6902 1.06146 47.8043C1.10912 47.9184 1.17895 48.022 1.26691 48.1089C1.35487 48.1959 1.4592 48.2645 1.57387 48.3108C1.68854 48.3572 1.81127 48.3803 1.93494 48.3789H64.0644C64.1881 48.3803 64.3108 48.3572 64.4255 48.3108C64.5402 48.2645 64.6445 48.1959 64.7325 48.1089C64.8204 48.022 64.8903 47.9184 64.9379 47.8043C64.9856 47.6902 65.0101 47.5677 65.0101 47.4441C65.0101 47.3204 64.9856 47.1979 64.9379 47.0838C64.8903 46.9697 64.8204 46.8661 64.7325 46.7792C64.6445 46.6922 64.5402 46.6236 64.4255 46.5773C64.3108 46.5309 64.1881 46.5078 64.0644 46.5093ZM0.999943 40.1714C0.999959 40.2942 1.02416 40.4157 1.07116 40.5292C1.11815 40.6426 1.18703 40.7456 1.27386 40.8324C1.36068 40.9192 1.46375 40.988 1.57718 41.035C1.69061 41.0819 1.81217 41.1061 1.93494 41.106H64.0644C64.3124 41.106 64.5501 41.0076 64.7255 40.8323C64.9008 40.6571 64.9993 40.4193 64.9994 40.1714C64.9994 39.9235 64.9009 39.6857 64.7256 39.5103C64.5502 39.335 64.3124 39.2365 64.0644 39.2364H60.6322L64.9609 20.0763C65.0907 19.5012 64.8778 18.8908 64.4179 18.5217L55.3505 11.243C55.2369 11.1513 55.1061 11.0832 54.9659 11.0428C54.8256 11.0024 54.6786 10.9904 54.5336 11.0077C54.3887 11.0238 54.2485 11.0687 54.1212 11.1398C53.9939 11.2109 53.8821 11.3067 53.7924 11.4217L50.0108 16.2302L46.5342 14.2669C46.366 14.1726 46.1762 14.1237 45.9834 14.125C45.7906 14.1264 45.6014 14.1779 45.4346 14.2746C45.2683 14.3723 45.1304 14.5116 45.0344 14.6789C44.9384 14.8461 44.8877 15.0355 44.8873 15.2284V18.5578H21.112V15.2282C21.112 14.8371 20.902 14.472 20.5648 14.2746C20.3981 14.1778 20.209 14.1262 20.0163 14.1248C19.8235 14.1235 19.6337 14.1724 19.4657 14.2669L15.9886 16.2302L12.2074 11.4222C12.1176 11.3072 12.0057 11.2113 11.8784 11.1401C11.751 11.0689 11.6107 11.0239 11.4657 11.0077C11.3206 10.9904 11.1736 11.0024 11.0331 11.0429C10.8927 11.0834 10.7619 11.1515 10.6482 11.2434L1.58106 18.5222C1.12157 18.8915 0.908193 19.5013 1.03807 20.0765L5.36666 39.2366H1.93494C1.81215 39.2365 1.69056 39.2607 1.57711 39.3077C1.46366 39.3547 1.36058 39.4235 1.27376 39.5104C1.18693 39.5972 1.11806 39.7003 1.07108 39.8137C1.0241 39.9272 0.999926 40.0486 0.999943 40.1714ZM46.7575 16.5407L55.2833 21.3552L54.1816 32.9064C54.1692 33.0361 54.184 33.1671 54.2251 33.2908C54.2663 33.4145 54.3329 33.5283 54.4206 33.6247C54.5084 33.7211 54.6153 33.7981 54.7346 33.8507C54.8539 33.9034 54.9829 33.9304 55.1133 33.9302C55.3457 33.93 55.5698 33.8432 55.7417 33.6868C55.9136 33.5303 56.021 33.3154 56.043 33.084L57.164 21.3288C57.1925 21.0298 57.1337 20.7289 56.9948 20.4625C56.8559 20.1961 56.6429 19.9757 56.3814 19.8278L51.6583 17.1609L54.7836 13.1859L63.0936 19.8566L58.7157 39.2364H55.456L55.6739 36.9532C55.693 36.7088 55.6153 36.4666 55.4575 36.279C55.2998 36.0913 55.0747 35.973 54.8306 35.9497C54.5866 35.9264 54.3431 35.9999 54.1527 36.1543C53.9623 36.3088 53.8402 36.5318 53.8127 36.7755L53.5777 39.2364H49.0333V20.1341C49.0333 19.2648 48.3262 18.5583 47.4576 18.5583H46.7575V16.5407ZM19.2421 18.5578H18.4988C17.6297 18.5578 16.9232 19.2648 16.9232 20.1341V22.7707C16.9272 23.016 17.0275 23.2499 17.2024 23.422C17.3773 23.5941 17.6128 23.6905 17.8582 23.6905C18.1035 23.6905 18.3391 23.5941 18.514 23.422C18.6889 23.2499 18.7892 23.016 18.7932 22.7707V20.428H47.1633V39.2364H18.7933V26.6978C18.7905 26.4517 18.6907 26.2166 18.5156 26.0436C18.3406 25.8705 18.1044 25.7735 17.8582 25.7735C17.6121 25.7735 17.3759 25.8705 17.2009 26.0436C17.0258 26.2166 16.926 26.4517 16.9232 26.6978V39.2364H12.4217L10.7161 21.3552L19.2419 16.5407L19.2421 18.5578ZM2.90555 19.8566L11.2155 13.1858L14.3411 17.161L9.618 19.8278C9.35655 19.9758 9.1435 20.1962 9.00454 20.4626C8.86558 20.7289 8.80666 21.0297 8.83488 21.3288L10.5434 39.2364H7.28364L2.90555 19.8566ZM26.7869 69.0618C26.6641 69.0618 26.5425 69.0859 26.4291 69.1329C26.3157 69.1798 26.2126 69.2487 26.1258 69.3355C26.039 69.4223 25.9701 69.5253 25.9231 69.6387C25.8761 69.7521 25.8519 69.8737 25.8519 69.9964V73.508C25.8559 73.7534 25.9562 73.9873 26.1311 74.1594C26.306 74.3314 26.5415 74.4279 26.7869 74.4279C27.0322 74.4279 27.2678 74.3314 27.4427 74.1594C27.6176 73.9873 27.7178 73.7534 27.7219 73.508V69.9964C27.7218 69.7485 27.6232 69.5108 27.4479 69.3355C27.2725 69.1603 27.0348 69.0618 26.7869 69.0618Z" fill="#B3794C" stroke="white" mask="url(#path-1-inside-1_306_222)"/>
<mask id="path-2-inside-2_306_222" fill="white">
<path d="M61.6202 62.3068C61.6435 62.1374 61.6563 61.9656 61.6563 61.7933C61.6563 60.0803 60.5234 58.6492 58.9507 58.2108V57.0214C58.9507 55.0985 57.4586 53.5194 55.5719 53.3789C55.5953 53.2094 55.6074 53.0375 55.6074 52.8651C55.6074 50.8134 53.9375 49.1439 51.8854 49.1439C49.8336 49.1439 48.1641 50.8129 48.1641 52.8651C48.1641 53.0345 48.1754 53.2035 48.1984 53.3705C47.1641 53.4013 46.2365 53.8631 45.59 54.5834C44.9777 53.9013 44.1134 53.451 43.1452 53.3788C43.169 53.2094 43.1814 53.0375 43.1814 52.865C43.1814 50.8134 41.5119 49.1439 39.4602 49.1439C37.4075 49.1439 35.7375 50.8129 35.7375 52.8651C35.7375 53.0345 35.7492 53.2035 35.7722 53.3705C34.738 53.4013 33.8107 53.8631 33.1642 54.5834C32.5525 53.9018 31.6883 53.4515 30.7205 53.3788C30.7439 53.2094 30.7561 53.0375 30.7561 52.865C30.7561 50.8134 29.0862 49.1439 27.0339 49.1439C24.9813 49.1439 23.3115 50.8134 23.3115 52.8651C23.3115 53.0351 23.3231 53.2035 23.3461 53.3705C22.3118 53.4013 21.3846 53.8631 20.7386 54.5834C20.1264 53.9013 19.2621 53.451 18.2942 53.3788C18.3177 53.2094 18.33 53.0375 18.33 52.865C18.33 50.8134 16.66 49.1439 14.6078 49.1439C12.555 49.1439 10.8852 50.8134 10.8852 52.8651C10.8852 53.0351 10.8969 53.2035 10.9198 53.3705C8.95644 53.4291 7.37733 55.0437 7.37733 57.0214V58.1707C5.73484 58.5575 4.50772 60.0345 4.50772 61.7932C4.50772 61.9627 4.51897 62.1317 4.54197 62.2982C2.57911 62.3572 1 63.9709 1 65.9485V73.5075C1.00401 73.7528 1.10428 73.9867 1.27919 74.1588C1.4541 74.3309 1.68963 74.4273 1.93499 74.4273C2.18035 74.4273 2.41588 74.3309 2.59079 74.1588C2.7657 73.9867 2.86597 73.7528 2.86999 73.5075V65.9485C2.86999 64.9652 3.66998 64.1653 4.65335 64.1653H5.83296C5.83634 64.1653 5.83984 64.1658 5.84271 64.1658C5.84571 64.1658 5.84909 64.1653 5.85196 64.1653H11.643C12.6264 64.1653 13.4262 64.9652 13.4262 65.9485V73.5075C13.4247 73.6312 13.4478 73.7539 13.4942 73.8685C13.5405 73.9832 13.6091 74.0876 13.6961 74.1755C13.783 74.2635 13.8866 74.3333 14.0007 74.381C14.1148 74.4286 14.2373 74.4532 14.361 74.4532C14.4846 74.4532 14.6071 74.4286 14.7212 74.381C14.8353 74.3333 14.9389 74.2635 15.0258 74.1755C15.1128 74.0876 15.1814 73.9832 15.2277 73.8685C15.2741 73.7539 15.2972 73.6312 15.2958 73.5075V65.9485C15.2958 64.9652 16.0961 64.1653 17.079 64.1653H23.035C23.038 64.1653 23.0413 64.1658 23.0442 64.1658C23.0477 64.1658 23.0506 64.1653 23.0541 64.1653H24.0691C25.0521 64.1653 25.8518 64.9652 25.8518 65.9485C25.8518 66.4002 26.1727 66.7772 26.5984 66.8645C26.7344 66.8926 26.8749 66.8901 27.0098 66.8571C27.1447 66.824 27.2705 66.7614 27.3781 66.6737C27.4858 66.586 27.5725 66.4754 27.6321 66.3499C27.6916 66.2245 27.7225 66.0874 27.7224 65.9485C27.7224 64.9655 28.5223 64.1658 29.5052 64.1658H36.4948C37.4777 64.1658 38.2776 64.9655 38.2776 65.9485V73.5075C38.2776 74.0241 38.696 74.4425 39.2126 74.4425C39.7292 74.4425 40.1476 74.0241 40.1476 73.5075V65.9485C40.1476 64.9655 40.9479 64.1658 41.9313 64.1658H48.921C49.9039 64.1658 50.7037 64.9655 50.7037 65.9485V73.5075C50.7077 73.7528 50.808 73.9867 50.9829 74.1588C51.1578 74.3309 51.3934 74.4273 51.6387 74.4273C51.8841 74.4273 52.1196 74.3309 52.2945 74.1588C52.4694 73.9867 52.5697 73.7528 52.5737 73.5075V65.9485C52.5737 64.9655 53.3741 64.1658 54.3575 64.1658H61.3473C62.3301 64.1658 63.1299 64.9655 63.1299 65.9485V73.5075C63.1339 73.7528 63.2342 73.9867 63.4091 74.1588C63.584 74.3309 63.8195 74.4273 64.0649 74.4273C64.3102 74.4273 64.5458 74.3309 64.7207 74.1588C64.8956 73.9867 64.9959 73.7528 64.9999 73.5075V65.9485C64.9995 64.0261 63.5069 62.4474 61.6202 62.3068ZM59.7862 61.7933C59.7862 61.9632 59.7629 62.1323 59.7168 62.2958H56.1504C56.1046 62.1323 56.0812 61.9632 56.0811 61.7933C56.0811 60.7718 56.9122 59.9412 57.9336 59.9412H57.9493C57.9628 59.9421 57.9763 59.9428 57.9898 59.9432C58.997 59.9715 59.7862 60.7846 59.7862 61.7933ZM51.8854 51.014C52.9068 51.014 53.7378 51.8446 53.7378 52.8651C53.7378 53.036 53.714 53.205 53.6681 53.3676H50.1036C50.0574 53.2041 50.0338 53.0351 50.0337 52.8651C50.0337 51.8446 50.8644 51.014 51.8854 51.014ZM47.2906 62.2957H43.7257C43.6796 62.1322 43.6563 61.9631 43.6564 61.7932C43.6564 60.7718 44.4869 59.9412 45.5075 59.9412H45.5232C45.5366 59.9421 45.5501 59.9428 45.5637 59.9432C46.5709 59.9715 47.3599 60.7845 47.3599 61.7937C47.3599 61.9642 47.3365 62.1331 47.2906 62.2957ZM39.4602 51.014C40.4812 51.014 41.3112 51.8446 41.3112 52.8651C41.3113 53.035 41.288 53.2041 41.2419 53.3676H37.6775C37.6312 53.2041 37.6077 53.0351 37.6076 52.8651C37.6076 51.8446 38.4388 51.014 39.4602 51.014ZM34.8645 62.2957H31.2995C31.2535 62.1322 31.2301 61.9631 31.2303 61.7932C31.2303 60.7718 32.0613 59.9412 33.0827 59.9412H33.0984C33.1116 59.9422 33.1252 59.9427 33.1384 59.9432C34.1452 59.9715 34.9339 60.7845 34.9339 61.7937C34.9339 61.9642 34.9104 62.1331 34.8645 62.2957ZM27.0339 51.014C28.0554 51.014 28.8864 51.8446 28.8864 52.8651C28.8865 53.035 28.8632 53.2041 28.8172 53.3676H25.2513C25.205 53.2041 25.1815 53.0351 25.1814 52.8651C25.1814 51.8446 26.0126 51.014 27.0339 51.014ZM22.4398 62.2952H18.8734C18.8273 62.1319 18.804 61.963 18.8041 61.7933C18.8041 60.7718 19.6351 59.9412 20.6566 59.9412H20.6703C20.6845 59.9422 20.6986 59.9427 20.7122 59.9432C21.7196 59.9715 22.5086 60.7845 22.5086 61.7937C22.5088 61.9632 22.4857 62.132 22.4398 62.2952ZM14.6078 51.014C15.6293 51.014 16.4603 51.8446 16.4603 52.8651C16.4603 53.036 16.4365 53.205 16.391 53.3676H12.8252C12.7791 53.2041 12.7557 53.035 12.7558 52.8651C12.7558 51.8446 13.5863 51.014 14.6078 51.014ZM8.23032 59.9412H8.24407C8.25819 59.9422 8.27244 59.9427 8.28607 59.9432C9.29344 59.9715 10.0829 60.7845 10.0829 61.7937C10.0829 61.9642 10.0591 62.1331 10.0136 62.2952H6.44746C6.40132 62.132 6.37793 61.9633 6.37796 61.7937C6.37796 60.7718 7.20895 59.9412 8.23032 59.9412ZM14.3608 63.5111C13.7489 62.8289 12.8847 62.3787 11.9169 62.3064C11.9403 62.1371 11.9525 61.9656 11.9525 61.7933C11.9525 60.0803 10.8203 58.6492 9.24756 58.2108V57.0214C9.24756 56.038 10.0473 55.2376 11.0302 55.2376H18.0214C19.0042 55.2376 19.8041 56.038 19.8041 57.0214V58.1707C18.161 58.5575 16.934 60.0345 16.934 61.7937C16.934 61.9632 16.9456 62.1317 16.9686 62.2982C15.9345 62.3289 15.0073 62.7908 14.3608 63.5111ZM26.7874 63.5111C26.1751 62.8294 25.3108 62.3787 24.3431 62.3064C24.3666 62.1371 24.3787 61.9656 24.3787 61.7933C24.3787 60.08 23.2465 58.6487 21.6737 58.2108V57.0214C21.6737 56.038 22.4735 55.2376 23.4563 55.2376H30.4461C31.4295 55.2376 32.2298 56.038 32.2298 57.0214V58.1707C30.5873 58.5575 29.3602 60.0345 29.3602 61.7932C29.3602 61.9632 29.3719 62.1317 29.3943 62.2987C28.3605 62.3294 27.4334 62.7912 26.7874 63.5111ZM39.2121 63.5111C38.6003 62.8294 37.7361 62.3792 36.7678 62.3069C36.7916 62.1374 36.804 61.9657 36.804 61.7932C36.804 60.0803 35.6721 58.6492 34.0999 58.2107V57.0214C34.0999 56.038 34.8996 55.2376 35.8826 55.2376H42.8722C43.8552 55.2376 44.6549 56.038 44.6549 57.0214V58.1707C43.0128 58.5575 41.7863 60.0345 41.7863 61.7932C41.7863 61.9632 41.7981 62.1317 41.8209 62.2987C40.7868 62.3294 39.8584 62.7912 39.2121 63.5111ZM51.6382 63.5111C51.0265 62.8294 50.1622 62.3792 49.194 62.3069C49.2174 62.1374 49.2301 61.9657 49.2301 61.7932C49.2301 60.0803 48.0973 58.6492 46.5245 58.2107V57.0214C46.5245 56.0375 47.3249 55.2376 48.3088 55.2376H55.2983C56.2812 55.2376 57.0809 56.0375 57.0809 57.0214V58.1707C55.438 58.5575 54.211 60.0345 54.211 61.7932C54.211 61.9632 54.2226 62.1317 54.2456 62.2987C53.2118 62.3299 52.2847 62.7918 51.6382 63.5111Z"/>
</mask>
<path d="M61.6202 62.3068C61.6435 62.1374 61.6563 61.9656 61.6563 61.7933C61.6563 60.0803 60.5234 58.6492 58.9507 58.2108V57.0214C58.9507 55.0985 57.4586 53.5194 55.5719 53.3789C55.5953 53.2094 55.6074 53.0375 55.6074 52.8651C55.6074 50.8134 53.9375 49.1439 51.8854 49.1439C49.8336 49.1439 48.1641 50.8129 48.1641 52.8651C48.1641 53.0345 48.1754 53.2035 48.1984 53.3705C47.1641 53.4013 46.2365 53.8631 45.59 54.5834C44.9777 53.9013 44.1134 53.451 43.1452 53.3788C43.169 53.2094 43.1814 53.0375 43.1814 52.865C43.1814 50.8134 41.5119 49.1439 39.4602 49.1439C37.4075 49.1439 35.7375 50.8129 35.7375 52.8651C35.7375 53.0345 35.7492 53.2035 35.7722 53.3705C34.738 53.4013 33.8107 53.8631 33.1642 54.5834C32.5525 53.9018 31.6883 53.4515 30.7205 53.3788C30.7439 53.2094 30.7561 53.0375 30.7561 52.865C30.7561 50.8134 29.0862 49.1439 27.0339 49.1439C24.9813 49.1439 23.3115 50.8134 23.3115 52.8651C23.3115 53.0351 23.3231 53.2035 23.3461 53.3705C22.3118 53.4013 21.3846 53.8631 20.7386 54.5834C20.1264 53.9013 19.2621 53.451 18.2942 53.3788C18.3177 53.2094 18.33 53.0375 18.33 52.865C18.33 50.8134 16.66 49.1439 14.6078 49.1439C12.555 49.1439 10.8852 50.8134 10.8852 52.8651C10.8852 53.0351 10.8969 53.2035 10.9198 53.3705C8.95644 53.4291 7.37733 55.0437 7.37733 57.0214V58.1707C5.73484 58.5575 4.50772 60.0345 4.50772 61.7932C4.50772 61.9627 4.51897 62.1317 4.54197 62.2982C2.57911 62.3572 1 63.9709 1 65.9485V73.5075C1.00401 73.7528 1.10428 73.9867 1.27919 74.1588C1.4541 74.3309 1.68963 74.4273 1.93499 74.4273C2.18035 74.4273 2.41588 74.3309 2.59079 74.1588C2.7657 73.9867 2.86597 73.7528 2.86999 73.5075V65.9485C2.86999 64.9652 3.66998 64.1653 4.65335 64.1653H5.83296C5.83634 64.1653 5.83984 64.1658 5.84271 64.1658C5.84571 64.1658 5.84909 64.1653 5.85196 64.1653H11.643C12.6264 64.1653 13.4262 64.9652 13.4262 65.9485V73.5075C13.4247 73.6312 13.4478 73.7539 13.4942 73.8685C13.5405 73.9832 13.6091 74.0876 13.6961 74.1755C13.783 74.2635 13.8866 74.3333 14.0007 74.381C14.1148 74.4286 14.2373 74.4532 14.361 74.4532C14.4846 74.4532 14.6071 74.4286 14.7212 74.381C14.8353 74.3333 14.9389 74.2635 15.0258 74.1755C15.1128 74.0876 15.1814 73.9832 15.2277 73.8685C15.2741 73.7539 15.2972 73.6312 15.2958 73.5075V65.9485C15.2958 64.9652 16.0961 64.1653 17.079 64.1653H23.035C23.038 64.1653 23.0413 64.1658 23.0442 64.1658C23.0477 64.1658 23.0506 64.1653 23.0541 64.1653H24.0691C25.0521 64.1653 25.8518 64.9652 25.8518 65.9485C25.8518 66.4002 26.1727 66.7772 26.5984 66.8645C26.7344 66.8926 26.8749 66.8901 27.0098 66.8571C27.1447 66.824 27.2705 66.7614 27.3781 66.6737C27.4858 66.586 27.5725 66.4754 27.6321 66.3499C27.6916 66.2245 27.7225 66.0874 27.7224 65.9485C27.7224 64.9655 28.5223 64.1658 29.5052 64.1658H36.4948C37.4777 64.1658 38.2776 64.9655 38.2776 65.9485V73.5075C38.2776 74.0241 38.696 74.4425 39.2126 74.4425C39.7292 74.4425 40.1476 74.0241 40.1476 73.5075V65.9485C40.1476 64.9655 40.9479 64.1658 41.9313 64.1658H48.921C49.9039 64.1658 50.7037 64.9655 50.7037 65.9485V73.5075C50.7077 73.7528 50.808 73.9867 50.9829 74.1588C51.1578 74.3309 51.3934 74.4273 51.6387 74.4273C51.8841 74.4273 52.1196 74.3309 52.2945 74.1588C52.4694 73.9867 52.5697 73.7528 52.5737 73.5075V65.9485C52.5737 64.9655 53.3741 64.1658 54.3575 64.1658H61.3473C62.3301 64.1658 63.1299 64.9655 63.1299 65.9485V73.5075C63.1339 73.7528 63.2342 73.9867 63.4091 74.1588C63.584 74.3309 63.8195 74.4273 64.0649 74.4273C64.3102 74.4273 64.5458 74.3309 64.7207 74.1588C64.8956 73.9867 64.9959 73.7528 64.9999 73.5075V65.9485C64.9995 64.0261 63.5069 62.4474 61.6202 62.3068ZM59.7862 61.7933C59.7862 61.9632 59.7629 62.1323 59.7168 62.2958H56.1504C56.1046 62.1323 56.0812 61.9632 56.0811 61.7933C56.0811 60.7718 56.9122 59.9412 57.9336 59.9412H57.9493C57.9628 59.9421 57.9763 59.9428 57.9898 59.9432C58.997 59.9715 59.7862 60.7846 59.7862 61.7933ZM51.8854 51.014C52.9068 51.014 53.7378 51.8446 53.7378 52.8651C53.7378 53.036 53.714 53.205 53.6681 53.3676H50.1036C50.0574 53.2041 50.0338 53.0351 50.0337 52.8651C50.0337 51.8446 50.8644 51.014 51.8854 51.014ZM47.2906 62.2957H43.7257C43.6796 62.1322 43.6563 61.9631 43.6564 61.7932C43.6564 60.7718 44.4869 59.9412 45.5075 59.9412H45.5232C45.5366 59.9421 45.5501 59.9428 45.5637 59.9432C46.5709 59.9715 47.3599 60.7845 47.3599 61.7937C47.3599 61.9642 47.3365 62.1331 47.2906 62.2957ZM39.4602 51.014C40.4812 51.014 41.3112 51.8446 41.3112 52.8651C41.3113 53.035 41.288 53.2041 41.2419 53.3676H37.6775C37.6312 53.2041 37.6077 53.0351 37.6076 52.8651C37.6076 51.8446 38.4388 51.014 39.4602 51.014ZM34.8645 62.2957H31.2995C31.2535 62.1322 31.2301 61.9631 31.2303 61.7932C31.2303 60.7718 32.0613 59.9412 33.0827 59.9412H33.0984C33.1116 59.9422 33.1252 59.9427 33.1384 59.9432C34.1452 59.9715 34.9339 60.7845 34.9339 61.7937C34.9339 61.9642 34.9104 62.1331 34.8645 62.2957ZM27.0339 51.014C28.0554 51.014 28.8864 51.8446 28.8864 52.8651C28.8865 53.035 28.8632 53.2041 28.8172 53.3676H25.2513C25.205 53.2041 25.1815 53.0351 25.1814 52.8651C25.1814 51.8446 26.0126 51.014 27.0339 51.014ZM22.4398 62.2952H18.8734C18.8273 62.1319 18.804 61.963 18.8041 61.7933C18.8041 60.7718 19.6351 59.9412 20.6566 59.9412H20.6703C20.6845 59.9422 20.6986 59.9427 20.7122 59.9432C21.7196 59.9715 22.5086 60.7845 22.5086 61.7937C22.5088 61.9632 22.4857 62.132 22.4398 62.2952ZM14.6078 51.014C15.6293 51.014 16.4603 51.8446 16.4603 52.8651C16.4603 53.036 16.4365 53.205 16.391 53.3676H12.8252C12.7791 53.2041 12.7557 53.035 12.7558 52.8651C12.7558 51.8446 13.5863 51.014 14.6078 51.014ZM8.23032 59.9412H8.24407C8.25819 59.9422 8.27244 59.9427 8.28607 59.9432C9.29344 59.9715 10.0829 60.7845 10.0829 61.7937C10.0829 61.9642 10.0591 62.1331 10.0136 62.2952H6.44746C6.40132 62.132 6.37793 61.9633 6.37796 61.7937C6.37796 60.7718 7.20895 59.9412 8.23032 59.9412ZM14.3608 63.5111C13.7489 62.8289 12.8847 62.3787 11.9169 62.3064C11.9403 62.1371 11.9525 61.9656 11.9525 61.7933C11.9525 60.0803 10.8203 58.6492 9.24756 58.2108V57.0214C9.24756 56.038 10.0473 55.2376 11.0302 55.2376H18.0214C19.0042 55.2376 19.8041 56.038 19.8041 57.0214V58.1707C18.161 58.5575 16.934 60.0345 16.934 61.7937C16.934 61.9632 16.9456 62.1317 16.9686 62.2982C15.9345 62.3289 15.0073 62.7908 14.3608 63.5111ZM26.7874 63.5111C26.1751 62.8294 25.3108 62.3787 24.3431 62.3064C24.3666 62.1371 24.3787 61.9656 24.3787 61.7933C24.3787 60.08 23.2465 58.6487 21.6737 58.2108V57.0214C21.6737 56.038 22.4735 55.2376 23.4563 55.2376H30.4461C31.4295 55.2376 32.2298 56.038 32.2298 57.0214V58.1707C30.5873 58.5575 29.3602 60.0345 29.3602 61.7932C29.3602 61.9632 29.3719 62.1317 29.3943 62.2987C28.3605 62.3294 27.4334 62.7912 26.7874 63.5111ZM39.2121 63.5111C38.6003 62.8294 37.7361 62.3792 36.7678 62.3069C36.7916 62.1374 36.804 61.9657 36.804 61.7932C36.804 60.0803 35.6721 58.6492 34.0999 58.2107V57.0214C34.0999 56.038 34.8996 55.2376 35.8826 55.2376H42.8722C43.8552 55.2376 44.6549 56.038 44.6549 57.0214V58.1707C43.0128 58.5575 41.7863 60.0345 41.7863 61.7932C41.7863 61.9632 41.7981 62.1317 41.8209 62.2987C40.7868 62.3294 39.8584 62.7912 39.2121 63.5111ZM51.6382 63.5111C51.0265 62.8294 50.1622 62.3792 49.194 62.3069C49.2174 62.1374 49.2301 61.9657 49.2301 61.7932C49.2301 60.0803 48.0973 58.6492 46.5245 58.2107V57.0214C46.5245 56.0375 47.3249 55.2376 48.3088 55.2376H55.2983C56.2812 55.2376 57.0809 56.0375 57.0809 57.0214V58.1707C55.438 58.5575 54.211 60.0345 54.211 61.7932C54.211 61.9632 54.2226 62.1317 54.2456 62.2987C53.2118 62.3299 52.2847 62.7918 51.6382 63.5111Z" fill="#D9BCA5" stroke="white" mask="url(#path-2-inside-2_306_222)"/>
<rect x="-16" y="57.9995" width="100" height="18" fill="white"/>
</g>
<defs>
<clipPath id="clip0_306_222">
<rect width="66" height="66" fill="white" transform="translate(0.5)"/>
</clipPath>
</defs>
</svg>
