<svg width="18" height="14" viewBox="0 0 18 14" fill="none" xmlns="http://www.w3.org/2000/svg">
<path fill-rule="evenodd" clip-rule="evenodd" d="M2 0H16C17.0969 0 17.9876 0.883038 17.9999 1.97702C17.9954 1.77557 17.9302 1.57355 17.8001 1.40006C17.4687 0.958231 16.8419 0.868688 16.4001 1.20006L9.00006 6.75006L1.60006 1.20006C1.15823 0.868688 0.531432 0.958231 0.200061 1.40006C-0.13131 1.84189 -0.0417671 2.46869 0.400061 2.80006L8.40006 8.80006C8.75562 9.06672 9.24451 9.06672 9.60006 8.80006L17.6001 2.80006C17.8576 2.60692 17.9954 2.31342 18 2.01467V12C18 13.1046 17.1046 14 16 14H2C0.895432 14 0 13.1046 0 12V2C0 0.89543 0.895432 0 2 0ZM18 2.01467C18.0002 2.00213 18.0002 1.98957 17.9999 1.97702C18 1.98467 18 1.99233 18 2V2.01467Z" fill="white"/>
</svg>
