<svg width="25" height="15" viewBox="0 0 25 15" fill="none" xmlns="http://www.w3.org/2000/svg">
<path d="M23.7579 1.82228C23.9241 1.28196 23.7579 0.884277 22.958 0.884277H20.3112C19.6371 0.884277 19.3271 1.22576 19.1608 1.60615C19.1608 1.60615 17.8127 4.76596 15.9074 6.81487C15.2917 7.40707 15.0086 7.59726 14.6716 7.59726C14.5053 7.59726 14.2492 7.40707 14.2492 6.86674V1.82228C14.2492 1.17389 14.0605 0.884277 13.5032 0.884277H9.34207C8.91967 0.884277 8.66802 1.18686 8.66802 1.46783C8.66802 2.08164 9.62068 2.22428 9.71954 3.95332V7.70533C9.71954 8.52662 9.56676 8.67791 9.22973 8.67791C8.33099 8.67791 6.14705 5.50513 4.85287 1.87415C4.59223 1.16957 4.33609 0.884277 3.65754 0.884277H1.01075C0.255813 0.884277 0.103027 1.22576 0.103027 1.60615C0.103027 2.28047 1.00177 5.63048 4.28666 10.0568C6.47509 13.0783 9.55777 14.7166 12.3618 14.7166C14.047 14.7166 14.2537 14.3535 14.2537 13.7267C14.2537 10.8392 14.1009 10.5669 14.9457 10.5669C15.3367 10.5669 16.0107 10.7571 17.5835 12.2138C19.381 13.9428 19.6776 14.7166 20.6842 14.7166H23.331C24.0859 14.7166 24.4679 14.3535 24.2477 13.6359C23.7444 12.1273 20.3426 9.02372 20.1899 8.81623C19.7989 8.3321 19.9113 8.11597 20.1899 7.68371C20.1944 7.67939 23.4253 3.30493 23.7579 1.82228Z" fill="#051C36"/>
</svg>
