<svg width="104" height="104" viewBox="0 0 104 104" fill="none" xmlns="http://www.w3.org/2000/svg">
<path fill-rule="evenodd" clip-rule="evenodd" d="M52.1538 0.972168C62.2764 0.972167 72.1718 3.97388 80.5884 9.59774C89.0051 15.2216 95.5652 23.215 99.4389 32.5671C103.313 41.9192 104.326 52.21 102.351 62.1382C100.377 72.0664 95.5021 81.186 88.3443 88.3438C81.1865 95.5016 72.0669 100.376 62.1387 102.351C52.2105 104.326 41.9197 103.312 32.5676 99.4384C23.2155 95.5647 15.2221 89.0047 9.59823 80.588C3.97438 72.1713 0.972657 62.2759 0.972656 52.1533C0.972674 38.5792 6.36496 25.5611 15.9633 15.9628C25.5616 6.36447 38.5797 0.972187 52.1538 0.972168Z" fill="white"/>
<mask id="mask0_306_117" style="mask-type:luminance" maskUnits="userSpaceOnUse" x="2" y="2" width="101" height="101">
<path d="M84.0071 90.0808C106.941 69.096 106.33 33.9332 82.0928 15.1818C44.6218 -13.8079 -6.59188 22.4805 6.95707 66.5556C16.9833 99.1713 55.9016 111.679 84.0071 90.0808ZM84.0071 90.0808C62.6637 107.712 31.9544 106.021 13.9312 84.9131C-14.8348 51.2228 12.1118 -1.54364 56.8978 2.37458C100.721 6.2087 118.751 60.4689 84.0071 90.0808Z" fill="white"/>
</mask>
<g mask="url(#mask0_306_117)">
<path d="M118.751 -13.8076H-14.835V111.679H118.751V-13.8076Z" fill="url(#paint0_linear_306_117)"/>
</g>
<mask id="mask1_306_117" style="mask-type:luminance" maskUnits="userSpaceOnUse" x="71" y="27" width="16" height="56">
<path d="M77.929 31.5816C73.7025 54.1841 84.7073 51.3884 85.593 71.1554C85.5581 61.9426 88.6892 58.785 83.5949 51.1199C79.7033 45.3628 77.7211 38.5275 77.929 31.5816ZM75.8306 27.2605C79.1973 33.9079 70.8861 40.8186 72.0527 48.7735C73.9816 61.9279 83.187 68.7092 84.0221 82.5343C86.3947 70.1938 84.9214 64.4326 77.8183 51.3186C73.4452 43.2448 79.8601 31.8335 75.8306 27.2605ZM78.5509 32.6291C79.9342 43.9605 87.319 45.0194 86.7622 56.1604C85.0921 48.3796 78.1135 43.273 78.5509 32.6291Z" fill="white"/>
</mask>
<g mask="url(#mask1_306_117)">
<path d="M88.6888 27.2605H70.8857V82.5343H88.6888V27.2605Z" fill="url(#paint1_linear_306_117)"/>
</g>
<path fill-rule="evenodd" clip-rule="evenodd" d="M60.089 39.2703C60.2547 41.5899 61.6331 43.8498 63.7473 45.3941L72.5752 39.3497C68.2806 44.7447 70.3484 49.6224 72.3367 54.6992C70.8786 52.923 61.6792 49.6968 61.2819 52.7109C60.1506 61.294 73.8611 61.393 77.9437 69.9293C73.4396 62.7321 59.7925 62.4756 58.1565 51.4726C57.5425 47.343 57.3468 44.6891 60.089 39.2703Z" fill="#2A4093"/>
<mask id="mask2_306_117" style="mask-type:luminance" maskUnits="userSpaceOnUse" x="59" y="30" width="18" height="11">
<path d="M60.5648 31.1976C57.3703 40.3967 72.3088 42.0801 76.1528 30.4023C73.2632 46.7326 54.4674 39.7207 60.5648 31.1976Z" fill="white"/>
</mask>
<g mask="url(#mask2_306_117)">
<path d="M76.1533 30.4023H54.4678V46.7326H76.1533V30.4023Z" fill="url(#paint2_linear_306_117)"/>
</g>
<path fill-rule="evenodd" clip-rule="evenodd" d="M60.332 39.262C61.501 40.4721 62.8032 42.4948 69.4524 40.2836L64.9355 43.3037L63.5854 41.6966L62.3988 42.8155L60.332 39.262Z" fill="#E3000F"/>
<mask id="mask3_306_117" style="mask-type:luminance" maskUnits="userSpaceOnUse" x="56" y="22" width="24" height="14">
<path d="M56.499 28.424C58.262 31.7113 63.6038 25.2957 65.2475 27.9071C67.2754 22.4194 73.0163 26.4966 79.3243 22.0615C75.3611 29.4446 69.8007 27.57 67.6235 30.0244C66.3839 31.4217 65.4993 33.3151 65.7644 35.1841C64.6642 33.4476 64.2491 31.8267 62.7819 30.7701C61.3447 29.735 56.7045 33.6201 56.499 28.424Z" fill="white"/>
</mask>
<g mask="url(#mask3_306_117)">
<path d="M79.3243 22.0615H56.499V35.1841H79.3243V22.0615Z" fill="url(#paint3_linear_306_117)"/>
</g>
<path fill-rule="evenodd" clip-rule="evenodd" d="M67.4639 31.2673C67.8947 32.2349 72.0832 34.6739 73.4088 28.2053C71.4271 29.0669 68.7196 29.2124 67.4639 31.2673Z" fill="black"/>
<path fill-rule="evenodd" clip-rule="evenodd" d="M63.8135 32.2668C63.7161 32.7859 62.1076 34.4217 60.9121 31.3965C61.8642 31.6088 63.0672 31.3939 63.8135 32.2668Z" fill="black"/>
<path fill-rule="evenodd" clip-rule="evenodd" d="M71.558 29.5619C71.8905 29.3923 72.233 29.3974 72.3227 29.5735C72.4126 29.7496 72.2158 30.0298 71.8832 30.1995C71.5506 30.3691 71.2083 30.3639 71.1184 30.1879C71.0286 30.0118 71.2254 29.7315 71.558 29.5619Z" fill="white"/>
<path fill-rule="evenodd" clip-rule="evenodd" d="M63.1399 31.9704C62.9259 31.8612 62.7055 31.8645 62.6477 31.9778C62.59 32.0911 62.7167 32.2715 62.9306 32.3805C63.1445 32.4897 63.3649 32.4864 63.4227 32.3731C63.4804 32.2598 63.3538 32.0795 63.1399 31.9704Z" fill="white"/>
<path fill-rule="evenodd" clip-rule="evenodd" d="M59.4062 25.0369L69.8293 21.2169L76.6311 22.8232L69.869 19.5269L59.4062 25.0369ZM64.839 23.9507L65.0876 26.6746C66.1347 24.7094 68.1204 23.0466 72.9114 23.6722V22.5986L70.0085 21.8431L64.839 23.9507Z" fill="#E3000F"/>
<mask id="mask4_306_117" style="mask-type:luminance" maskUnits="userSpaceOnUse" x="25" y="19" width="34" height="35">
<path d="M31.6004 43.074C34.9832 49.7879 52.5746 58.097 58.8732 39.1334C48.4646 51.4202 36.3354 46.3592 31.6004 43.074ZM25.893 31.3319C27.5954 39.704 40.2727 52.6491 58.2442 38.1518C39.1472 45.6757 29.961 35.2802 25.893 31.3319ZM25.4298 19.209C24.343 27.7718 33.8335 43.4128 58.435 37.0238C38.0884 37.289 27.5242 24.5508 25.4298 19.209ZM43.8932 51.717C48.9307 54.6063 55.8316 54.1371 57.6233 44.9882C52.4318 51.8244 48.3916 51.7504 43.8932 51.717Z" fill="white"/>
</mask>
<g mask="url(#mask4_306_117)">
<path d="M58.873 19.209H24.3428V58.097H58.873V19.209Z" fill="url(#paint4_linear_306_117)"/>
</g>
<mask id="mask5_306_117" style="mask-type:luminance" maskUnits="userSpaceOnUse" x="20" y="37" width="39" height="32">
<path d="M29.0189 68.4473C24.5387 58.612 16.0819 47.027 22.2588 37.2712C17.9642 54.9271 39.403 49.5229 43.9707 57.5516C48.2654 55.2718 53.6735 58.2409 58.7635 56.1996C55.051 59.0161 49.2651 56.8102 45.6936 60.0495L49.1847 67.9284L45.3228 60.4148C38.5096 52.8328 26.4473 56.7828 23.2132 49.5985C24.5122 58.4265 27.002 62.8811 29.0189 68.4473Z" fill="white"/>
</mask>
<g mask="url(#mask5_306_117)">
<path d="M58.7636 37.2712H16.082V68.4473H58.7636V37.2712Z" fill="url(#paint5_linear_306_117)"/>
</g>
<mask id="mask6_306_117" style="mask-type:luminance" maskUnits="userSpaceOnUse" x="6" y="6" width="94" height="94">
<path d="M13.8424 28.436C-0.49315 53.6826 10.1713 84.7489 37.1041 94.4321C78.742 109.403 113.799 62.4179 89.0729 27.1579C70.7757 1.06523 32.5966 1.15568 13.8424 28.436ZM13.8424 28.436C27.7302 6.62641 55.5021 -0.71139 77.592 12.855C112.849 34.5077 104.096 89.1474 63.1763 98.5584C23.1361 107.767 -8.50345 64.7475 13.8424 28.436Z" fill="white"/>
</mask>
<g mask="url(#mask6_306_117)">
<path d="M113.798 -0.711426H-8.50391V109.403H113.798V-0.711426Z" fill="url(#paint6_linear_306_117)"/>
</g>
<path d="M67.4769 68.8408L67.0728 69.8008H67.877L67.4769 68.8408ZM67.7513 68.2029L68.6933 70.4643C68.7111 70.5145 68.742 70.5591 68.7828 70.5934C68.8207 70.6178 68.8652 70.6298 68.9102 70.6277H69.0032V70.7846H67.8205V70.6277H67.9315C67.9931 70.6323 68.0549 70.6223 68.1118 70.5985C68.1264 70.5917 68.1388 70.5808 68.1475 70.5673C68.1563 70.5537 68.161 70.5379 68.1613 70.5218C68.1601 70.4919 68.1531 70.4624 68.1408 70.4351L67.9467 69.9683H67.0024L66.9123 70.1811C66.8821 70.2432 66.8632 70.3101 66.8565 70.3788C66.8555 70.413 66.8623 70.4469 66.8764 70.478C66.8905 70.5092 66.9115 70.5367 66.9379 70.5585C67.0016 70.6075 67.0808 70.632 67.1611 70.6277H67.2413V70.7846H66.2855V70.6277H66.3401C66.3993 70.6285 66.4567 70.6078 66.5018 70.5695C66.5693 70.5134 66.622 70.4415 66.6552 70.3602L67.5635 68.2029H67.7513ZM63.8398 68.4227V68.2657H66.1494V68.4227H65.9209C65.8243 68.4227 65.7761 68.4617 65.7761 68.5402V70.4928C65.7761 70.5828 65.833 70.6277 65.9464 70.6277H66.1494V70.7846H64.855V70.6277H65.0521C65.1765 70.6277 65.2387 70.5827 65.2388 70.4928V68.4227H64.8125C64.7335 68.4152 64.6541 68.4323 64.5852 68.4715C64.5411 68.5078 64.5101 68.5574 64.4969 68.6129C64.462 68.8425 64.4406 69.0739 64.4329 69.306C64.4186 69.6061 64.3852 69.905 64.3329 70.2009C64.3072 70.3785 64.2306 70.5448 64.1125 70.6799C64.065 70.7301 64.0076 70.77 63.944 70.7971C63.8803 70.8241 63.8118 70.8377 63.7427 70.837C63.6911 70.8404 63.6393 70.8327 63.5909 70.8143C63.5426 70.796 63.4987 70.7674 63.4624 70.7305C63.3992 70.6638 63.3644 70.5752 63.3653 70.4834C63.3624 70.402 63.3909 70.3227 63.445 70.2619C63.4704 70.2332 63.5019 70.2104 63.5372 70.1953C63.5725 70.1801 63.6106 70.1728 63.649 70.1741C63.7045 70.1759 63.7587 70.1921 63.8061 70.2211C63.8357 70.2416 63.8596 70.2693 63.8753 70.3018C63.891 70.3342 63.898 70.3702 63.8955 70.4061C63.9002 70.477 63.9259 70.5125 63.9736 70.5125C64.0642 70.5125 64.1338 70.3724 64.1823 70.0921C64.2336 69.7745 64.2578 69.4532 64.2549 69.1315C64.2711 68.9341 64.2468 68.7355 64.1834 68.5478C64.1571 68.5053 64.1194 68.4711 64.0746 68.449C64.0297 68.4269 63.9796 68.4178 63.9299 68.4227L63.8398 68.4227ZM61.8866 68.3669C61.76 68.3641 61.6361 68.4034 61.5342 68.4786C61.4214 68.5725 61.3389 68.6977 61.297 68.8385C61.2307 69.0589 61.201 69.2887 61.2092 69.5188C61.1999 69.7511 61.2272 69.9834 61.29 70.2072C61.331 70.3445 61.4137 70.4657 61.5267 70.5538C61.632 70.6292 61.7588 70.6686 61.8883 70.666C61.9852 70.6677 62.081 70.6447 62.1665 70.599C62.252 70.5533 62.3244 70.4865 62.3768 70.4049C62.5225 70.1256 62.5857 69.8106 62.5593 69.4967C62.5685 69.2674 62.5421 69.0381 62.4808 68.8169C62.4402 68.6825 62.3585 68.5641 62.2471 68.4786C62.142 68.4036 62.0157 68.3645 61.8866 68.3669ZM61.8773 68.2029C62.1075 68.2011 62.334 68.2605 62.5338 68.375C62.7299 68.4854 62.892 68.6475 63.0024 68.8437C63.1158 69.0487 63.1735 69.2799 63.1699 69.5142C63.1749 69.6885 63.1448 69.862 63.0811 70.0244C63.0175 70.1868 62.9217 70.3346 62.7995 70.459C62.6809 70.5822 62.538 70.6795 62.3798 70.7445C62.2217 70.8096 62.0517 70.8411 61.8808 70.837C61.6559 70.8406 61.4342 70.7834 61.2391 70.6714C61.0441 70.5594 60.8829 70.3969 60.7725 70.2009C60.658 69.9934 60.6005 69.7592 60.6056 69.5223C60.5998 69.348 60.6293 69.1743 60.6922 69.0116C60.7552 68.849 60.8503 68.7007 60.9719 68.5756C61.0889 68.4543 61.2297 68.3586 61.3855 68.2944C61.5413 68.2303 61.7088 68.1991 61.8773 68.2029ZM58.6868 69.4344H59.0153C59.0892 69.4371 59.1626 69.4204 59.2282 69.3861C59.2798 69.3598 59.32 69.3156 59.3415 69.2618C59.3661 69.1772 59.3798 69.0899 59.3823 69.0019C59.3877 68.8503 59.405 68.6994 59.434 68.5506C59.4538 68.4597 59.5025 68.3777 59.573 68.3169C59.6533 68.2535 59.754 68.2217 59.8561 68.2273C59.9132 68.2238 59.9703 68.2325 60.0237 68.253C60.0771 68.2735 60.1254 68.3052 60.1655 68.346C60.2343 68.4158 60.2732 68.5096 60.2742 68.6076C60.2764 68.6884 60.2482 68.767 60.1951 68.8279C60.1728 68.8559 60.1445 68.8785 60.1123 68.8941C60.0801 68.9097 60.0449 68.9179 60.0091 68.9181C59.9434 68.92 59.8795 68.8958 59.8317 68.8507C59.7953 68.816 59.7715 68.7703 59.7639 68.7206C59.7564 68.6709 59.7655 68.6202 59.7899 68.5762C59.8007 68.5591 59.8076 68.5399 59.8102 68.5198C59.8102 68.4646 59.7881 68.4366 59.7434 68.4366C59.7185 68.4382 59.6946 68.4466 59.6741 68.4607C59.6536 68.4748 59.6374 68.4942 59.6271 68.5169C59.5777 68.6644 59.5535 68.8191 59.5555 68.9746C59.5588 69.1158 59.5296 69.2558 59.4701 69.3839C59.4171 69.4548 59.3413 69.5053 59.2555 69.527C59.4265 69.5499 59.5836 69.6332 59.6986 69.7618C59.7817 69.904 59.8404 70.059 59.8724 70.2206C59.9189 70.4161 59.9707 70.5134 60.0277 70.5125C60.1027 70.5125 60.1465 70.4125 60.1591 70.2125H60.3091C60.2876 70.6102 60.1223 70.8091 59.8132 70.8091C59.7331 70.811 59.6538 70.7938 59.5817 70.7591C59.5096 70.7177 59.4538 70.6528 59.4235 70.5753C59.3629 70.4 59.3237 70.2181 59.3067 70.0334C59.2975 69.9094 59.2488 69.7915 59.1677 69.6973C59.1332 69.6608 59.0915 69.632 59.0452 69.6126C58.999 69.5932 58.9492 69.5836 58.899 69.5845H58.6868V70.5049C58.6868 70.5869 58.7409 70.6277 58.849 70.6277H59.0288V70.7846H57.7937V70.6277H57.992C58.0154 70.6312 58.0394 70.6288 58.0617 70.6207C58.084 70.6127 58.104 70.5993 58.1199 70.5817C58.1366 70.5593 58.1469 70.5328 58.1495 70.5049V68.5524C58.1495 68.4658 58.0972 68.4227 57.992 68.4227H57.7937V68.2658H59.0288V68.4227H58.827C58.7938 68.424 58.7617 68.4347 58.7345 68.4535C58.7184 68.4643 58.7056 68.4791 58.6972 68.4965C58.6888 68.5138 58.6852 68.5331 58.6868 68.5524L58.6868 69.4344ZM56.5279 70.5823V68.5623C56.5279 68.4692 56.475 68.4227 56.3685 68.4227H56.1651V68.2657H57.4315V68.4227H57.2001C57.1052 68.4227 57.0581 68.4617 57.0581 68.5402V70.4928C57.0581 70.5828 57.114 70.6278 57.2256 70.6277H57.4315V70.7846H53.3496V70.6277H53.5473C53.6711 70.6277 53.7334 70.5828 53.7334 70.4928V68.5623C53.7334 68.4692 53.6804 68.4227 53.5746 68.4227H53.3496V68.2657H54.63V68.4227H54.4067C54.3113 68.4227 54.2637 68.4617 54.2637 68.5402V70.5823H55.1289V68.5623C55.1289 68.4692 55.0764 68.4227 54.9713 68.4227H54.8219V68.2657H55.9662V68.4227H55.7999C55.7063 68.4227 55.6592 68.4617 55.6592 68.5402V70.5823H56.5279ZM51.0917 69.4485V68.6135C51.0917 68.5303 51.0778 68.478 51.0493 68.4558C50.9874 68.427 50.9189 68.4155 50.851 68.4227C50.7069 68.4122 50.5634 68.4503 50.4434 68.5309C50.3926 68.581 50.3539 68.642 50.3302 68.7093C50.3065 68.7766 50.2985 68.8484 50.3067 68.9193C50.2959 68.9987 50.3059 69.0795 50.3358 69.1538C50.3657 69.2281 50.4144 69.2934 50.4772 69.3432C50.5983 69.4154 50.7373 69.4519 50.8783 69.4485L51.0917 69.4485ZM51.9814 68.2657V68.4227H51.7686C51.6755 68.4227 51.6289 68.4733 51.629 68.5745V70.4759C51.6262 70.4967 51.6283 70.5179 51.6352 70.5378C51.642 70.5577 51.6534 70.5757 51.6684 70.5904C51.6834 70.6051 51.7016 70.6162 51.7216 70.6226C51.7416 70.6291 51.7629 70.6308 51.7837 70.6277H51.9814V70.7846H50.7079V70.6277H50.9347C50.9757 70.6291 51.0157 70.6157 51.0475 70.5899C51.0619 70.5778 51.0734 70.5627 51.0811 70.5455C51.0887 70.5284 51.0923 70.5098 51.0917 70.491V69.6054H50.9039C50.8516 69.6019 50.7992 69.6113 50.7514 69.6326C50.7035 69.654 50.6616 69.6868 50.6294 69.7282C50.5429 69.8755 50.4849 70.0378 50.4585 70.2066C50.4334 70.3307 50.3992 70.4528 50.3562 70.5718C50.3273 70.6424 50.2776 70.7024 50.2137 70.7439C50.136 70.7907 50.0461 70.8134 49.9555 70.8091C49.8904 70.8132 49.8252 70.803 49.7644 70.7793C49.7037 70.7556 49.6489 70.7189 49.6037 70.6719C49.5073 70.5394 49.4554 70.3798 49.4554 70.216H49.6055C49.6088 70.2833 49.6227 70.3496 49.6467 70.4125C49.6718 70.4816 49.7055 70.516 49.7473 70.516C49.8038 70.5148 49.8566 70.43 49.9078 70.2631C49.9449 70.1295 49.9956 70.0002 50.059 69.8769C50.1066 69.7923 50.174 69.7204 50.2555 69.6676C50.3542 69.6075 50.4639 69.568 50.5782 69.5513C50.0229 69.5072 49.7452 69.2924 49.745 68.9071C49.7398 68.8102 49.7616 68.7138 49.8078 68.6285C49.8541 68.5432 49.9232 68.4723 50.0073 68.4239C50.2081 68.3121 50.4358 68.2574 50.6655 68.2658L51.9814 68.2657ZM47.8216 68.8408L47.4175 69.8008H48.2217L47.8216 68.8408ZM48.096 68.2029L49.038 70.4643C49.0558 70.5145 49.0867 70.5591 49.1275 70.5934C49.1654 70.6178 49.2099 70.6298 49.2549 70.6277H49.3479V70.7846H48.1652V70.6277H48.2763C48.3378 70.6323 48.3996 70.6223 48.4565 70.5985C48.4711 70.5917 48.4835 70.5808 48.4922 70.5673C48.501 70.5537 48.5057 70.5379 48.5059 70.5218C48.5048 70.4919 48.4979 70.4624 48.4856 70.4351L48.2914 69.9683H47.3471L47.257 70.1811C47.2268 70.2432 47.2079 70.3101 47.2011 70.3788C47.2001 70.413 47.207 70.4469 47.2211 70.478C47.2352 70.5092 47.2562 70.5367 47.2826 70.5585C47.3463 70.6075 47.4255 70.632 47.5058 70.6277H47.586V70.7846H46.6302V70.6277H46.6848C46.744 70.6285 46.8014 70.6078 46.8465 70.5695C46.9141 70.5134 46.9668 70.4415 46.9999 70.3602L47.9082 68.2029H48.096ZM43.8315 68.2658H44.9968V68.4227H44.8247C44.7855 68.4197 44.7465 68.4313 44.7153 68.4552C44.7034 68.4662 44.694 68.4797 44.6878 68.4946C44.6816 68.5096 44.6787 68.5257 44.6794 68.5419V69.3681H45.6457V68.5843C45.6481 68.5619 45.646 68.5392 45.6394 68.5176C45.6328 68.4961 45.6218 68.476 45.6073 68.4588C45.5702 68.4312 45.5242 68.4184 45.4782 68.4227H45.3317V68.2657H46.497V68.4227H46.3405C46.2954 68.4184 46.2501 68.4306 46.2132 68.457C46.1999 68.4709 46.1896 68.4874 46.1832 68.5056C46.1768 68.5238 46.1743 68.5431 46.176 68.5623V70.4671C46.174 70.489 46.1764 70.5111 46.183 70.532C46.1896 70.553 46.2003 70.5724 46.2144 70.5893C46.2288 70.6026 46.2457 70.6129 46.2642 70.6195C46.2827 70.6261 46.3023 70.6289 46.3219 70.6277H46.497V70.7846H45.3317V70.6277H45.5091C45.5279 70.6295 45.5469 70.6275 45.5649 70.6219C45.583 70.6163 45.5997 70.6072 45.6143 70.5951C45.6383 70.564 45.6495 70.5248 45.6457 70.4857V69.5775H44.6794V70.4857C44.6762 70.5241 44.6871 70.5624 44.7101 70.5934C44.7207 70.6048 44.7337 70.6139 44.7482 70.6198C44.7627 70.6257 44.7783 70.6284 44.7939 70.6277H44.9968V70.7846H43.8315V70.6277H44.0182C44.0353 70.6292 44.0526 70.627 44.0689 70.6213C44.0851 70.6156 44.0999 70.6064 44.1123 70.5945C44.1349 70.5632 44.1455 70.5248 44.142 70.4863V68.5849C44.1444 68.5625 44.1421 68.5397 44.1355 68.5182C44.1288 68.4966 44.1178 68.4766 44.1031 68.4594C44.0673 68.4318 44.0224 68.4187 43.9774 68.4227H43.8315V68.2658ZM41.2946 68.2658H43.496L43.5519 69.2216H43.3983C43.3739 69.0556 43.3263 68.8937 43.2571 68.7408C43.2134 68.643 43.1448 68.5584 43.0582 68.4954C42.9857 68.4476 42.9008 68.4224 42.814 68.4227C42.774 68.4194 42.7342 68.4305 42.7017 68.4541C42.6894 68.4658 42.6799 68.48 42.6737 68.4958C42.6674 68.5116 42.6647 68.5285 42.6657 68.5455V70.4997C42.6651 70.5166 42.6679 70.5334 42.6739 70.5492C42.6799 70.565 42.689 70.5794 42.7006 70.5916C42.7114 70.6032 42.7244 70.6123 42.7389 70.6185C42.7534 70.6248 42.7691 70.6279 42.7849 70.6277H43.0704V70.7846H41.7237V70.6277H41.9959C42.0136 70.6286 42.0313 70.626 42.0479 70.62C42.0646 70.614 42.0799 70.6047 42.093 70.5928C42.105 70.5805 42.1143 70.5659 42.1204 70.5499C42.1265 70.5339 42.1292 70.5168 42.1284 70.4997V68.5559C42.1299 68.5375 42.1274 68.5189 42.1211 68.5016C42.1148 68.4842 42.1048 68.4684 42.0918 68.4552C42.0586 68.431 42.0177 68.4194 41.9767 68.4227C41.6871 68.4227 41.4911 68.689 41.3888 69.2216H41.2388L41.2946 68.2658ZM40.5654 68.457L40.6847 68.2064H40.8102L40.8522 69.2182H40.6951C40.6694 68.9791 40.5733 68.753 40.4189 68.5686C40.3608 68.5027 40.2894 68.4498 40.2095 68.4132C40.1295 68.3766 40.0428 68.3573 39.9549 68.3564C39.859 68.3573 39.765 68.3829 39.6819 68.4306C39.5988 68.4784 39.5294 68.5468 39.4804 68.6292C39.3357 68.8915 39.2704 69.1903 39.2926 69.4891C39.27 69.8103 39.3417 70.1311 39.499 70.412C39.5535 70.4896 39.6269 70.5521 39.7123 70.5935C39.7977 70.6349 39.8922 70.6539 39.987 70.6485C40.089 70.6502 40.1903 70.6299 40.2838 70.5891C40.3774 70.5483 40.4611 70.4879 40.5294 70.412C40.6492 70.2672 40.7259 70.0917 40.751 69.9055H40.9044C40.8818 70.1651 40.7647 70.4073 40.5754 70.5863C40.3914 70.7539 40.1496 70.8437 39.9009 70.837C39.7385 70.8406 39.5773 70.8099 39.4276 70.747C39.2779 70.6841 39.1432 70.5903 39.0322 70.4718C38.9149 70.3467 38.8236 70.1996 38.7635 70.039C38.7034 69.8784 38.6757 69.7075 38.6821 69.5362C38.6736 69.3485 38.7053 69.1612 38.775 68.9867C38.8447 68.8123 38.9508 68.6547 39.0863 68.5245C39.3021 68.3154 39.5916 68.1999 39.8921 68.2029C40.0074 68.2019 40.1219 68.2212 40.2306 68.2599C40.3517 68.3079 40.4647 68.3744 40.5654 68.457ZM36.9052 68.8408L36.5011 69.8008H37.3053L36.9052 68.8408ZM37.1796 68.2029L38.1216 70.4643C38.1394 70.5145 38.1703 70.5591 38.2111 70.5934C38.249 70.6178 38.2935 70.6298 38.3385 70.6277H38.4315V70.7846H37.2488V70.6277H37.3598C37.4214 70.6323 37.4832 70.6223 37.5401 70.5985C37.5547 70.5917 37.5671 70.5808 37.5759 70.5673C37.5846 70.5537 37.5893 70.5379 37.5895 70.5218C37.5884 70.4919 37.5815 70.4624 37.5692 70.4351L37.375 69.9683H36.4307L36.3406 70.1811C36.3104 70.2432 36.2915 70.3101 36.2848 70.3788C36.2838 70.413 36.2906 70.4469 36.3047 70.478C36.3188 70.5092 36.3398 70.5367 36.3662 70.5585C36.4299 70.6075 36.5091 70.632 36.5894 70.6277H36.6696V70.7846H35.7138V70.6277H35.7684C35.8276 70.6285 35.885 70.6078 35.9301 70.5695C35.9977 70.5133 36.0503 70.4415 36.0835 70.3602L36.9919 68.2029H37.1796ZM34.6711 69.3687V68.5896C34.6711 68.5192 34.6566 68.4739 34.6282 68.4535C34.5935 68.4316 34.5529 68.4208 34.5118 68.4227H34.2874V68.2658H35.5748V68.4227H35.3439C35.2492 68.4227 35.2015 68.4617 35.2015 68.5402V70.4928C35.2015 70.5828 35.2572 70.6277 35.3695 70.6277H35.5748V70.7846H34.2874V70.6277H34.4845C34.6089 70.6277 34.6711 70.5827 34.6711 70.4928V69.5299C34.4733 69.6598 34.2426 69.7308 34.006 69.7345C33.8035 69.7425 33.6039 69.6846 33.4372 69.5694C33.3617 69.511 33.3017 69.4348 33.2625 69.3477C33.2234 69.2606 33.2063 69.1652 33.2128 69.0699V68.5896C33.2128 68.5192 33.1989 68.4739 33.1704 68.4535C33.1358 68.4314 33.0951 68.4207 33.0541 68.4227H32.8291V68.2658H34.1164V68.4227H33.885C33.8659 68.4198 33.8464 68.4214 33.828 68.4274C33.8096 68.4333 33.7929 68.4435 33.7791 68.457C33.7654 68.4706 33.7549 68.4871 33.7487 68.5054C33.7425 68.5237 33.7406 68.5432 33.7432 68.5623V69.1286C33.7403 69.2059 33.7503 69.2831 33.7728 69.3571C33.7965 69.4154 33.8394 69.4638 33.8943 69.4944C33.9635 69.5332 34.0419 69.5522 34.1211 69.5496C34.2211 69.5472 34.32 69.5287 34.4142 69.495C34.5061 69.4671 34.5929 69.4244 34.6711 69.3687Z" fill="#1A1A18"/>
<path d="M75.3943 73.8885H81.0754L81.2195 76.4509H80.8233C80.7606 76.0067 80.6379 75.5731 80.4587 75.1619C80.3477 74.9017 80.1709 74.675 79.9455 74.5041C79.7602 74.3765 79.5403 74.3085 79.3153 74.3092C79.2116 74.3004 79.1084 74.3304 79.0256 74.3934C78.9937 74.4253 78.9689 74.4636 78.9529 74.5058C78.9369 74.548 78.93 74.5931 78.9326 74.6381V79.8769C78.9292 79.9676 78.9615 80.056 79.0226 80.1231C79.0499 80.1538 79.0835 80.1783 79.121 80.195C79.1586 80.2116 79.1992 80.2201 79.2403 80.2197H79.977V80.6406H76.5017V80.2197H77.2039C77.2498 80.2221 77.2958 80.215 77.3389 80.1989C77.382 80.1829 77.4214 80.1581 77.4545 80.1263C77.4857 80.093 77.5099 80.0537 77.5257 80.0109C77.5414 79.968 77.5484 79.9225 77.5462 79.8769V74.6662C77.5503 74.6172 77.544 74.5678 77.5277 74.5213C77.5114 74.4748 77.4855 74.4323 77.4516 74.3966C77.3668 74.3316 77.2609 74.3004 77.1545 74.3092C76.4073 74.3092 75.9015 75.0231 75.6374 76.4509H75.2502L75.3943 73.8885ZM71.0696 75.4299L70.0266 78.0033H72.102L71.0696 75.4299ZM71.7778 73.7201L74.2089 79.7817C74.254 79.9154 74.3337 80.0349 74.4399 80.1278C74.5367 80.193 74.6519 80.2252 74.7685 80.2197H75.0086V80.6406H71.9564V80.2197H72.243C72.4021 80.2321 72.5618 80.2053 72.7081 80.1418C72.7463 80.1226 72.7784 80.0932 72.801 80.0569C72.8235 80.0206 72.8355 79.9787 72.8357 79.936C72.8327 79.856 72.8149 79.7773 72.7833 79.7038L72.2821 78.4522H69.8451L69.6125 79.0226C69.5345 79.1898 69.4858 79.369 69.4684 79.5526C69.4655 79.6435 69.4829 79.7338 69.5192 79.8171C69.5556 79.9004 69.61 79.9746 69.6785 80.0343C69.8412 80.165 70.0464 80.2311 70.2548 80.2197H70.4618V80.6405H67.9949V80.2197H68.136C68.2896 80.2216 68.4384 80.166 68.5531 80.0638C68.7287 79.9117 68.8646 79.7191 68.9492 79.5028L71.2931 73.7201L71.7778 73.7201ZM59.5586 73.8885H62.1786L63.6508 78.4631L65.1347 73.8885H67.8148V74.3092H67.2311C67.1247 74.298 67.018 74.3275 66.9326 74.3919C66.8702 74.4726 66.8411 74.5741 66.8515 74.6756V79.841C66.8459 79.8896 66.851 79.9389 66.8663 79.9855C66.8815 80.032 66.9067 80.0747 66.94 80.1106C67.0424 80.1882 67.169 80.2268 67.2972 80.2197H67.8149V80.6406H64.5105V80.2197H65.1319C65.1801 80.2228 65.2285 80.2154 65.2735 80.1979C65.3186 80.1804 65.3593 80.1533 65.3929 80.1184C65.4567 80.0406 65.4889 79.9415 65.4829 79.841V74.3124L63.4031 80.6406H63.0175L60.9632 74.2578V79.1957C60.9582 79.3231 60.9784 79.4503 61.0227 79.5698C61.0669 79.6894 61.1344 79.7991 61.2212 79.8925C61.4238 80.0883 61.6902 80.2045 61.9715 80.2197V80.6406H59.5586V80.2197C59.6931 80.2138 59.8251 80.1813 59.9469 80.124C60.0687 80.0668 60.178 79.986 60.2684 79.8862C60.4423 79.6778 60.5326 79.4123 60.5219 79.1411V74.7706C60.5376 74.6402 60.5045 74.5087 60.429 74.4013C60.3259 74.3277 60.1992 74.2949 60.0733 74.3092H59.5586L59.5586 73.8885ZM55.5175 74.1597C55.1892 74.1529 54.8684 74.2584 54.6082 74.4589C54.3147 74.7142 54.102 75.0495 53.996 75.4237C53.8247 76.0158 53.7483 76.6313 53.7694 77.2473C53.7455 77.8695 53.8158 78.4917 53.9779 79.0928C54.0816 79.4577 54.2948 79.782 54.5887 80.0218C54.8577 80.2231 55.1861 80.3289 55.522 80.3226C55.7748 80.3257 56.0241 80.2628 56.2452 80.14C56.4662 80.0173 56.6515 79.839 56.7825 79.6228C57.0962 79.1552 57.2532 78.3436 57.2537 77.1881C57.2776 76.5741 57.2093 75.9599 57.0511 75.366C56.9485 75.0086 56.7378 74.6917 56.4479 74.4589C56.1794 74.259 55.8522 74.1538 55.5175 74.1597ZM55.4935 73.7201C56.0875 73.7175 56.6711 73.8758 57.1823 74.1783C57.6936 74.4807 58.1134 74.9159 58.3972 75.4377C58.6906 75.9907 58.8392 76.6089 58.8293 77.2348C58.8584 78.1724 58.5147 79.0832 57.8734 79.7678C57.3589 80.3042 56.678 80.6507 55.9416 80.7508C55.2051 80.851 54.4564 80.6989 53.8174 80.3194C53.3233 80.0152 52.918 79.5862 52.6423 79.0757C52.3462 78.5159 52.198 77.8898 52.2117 77.2567C52.179 76.3191 52.5189 75.4068 53.157 74.7192C53.4533 74.3964 53.8149 74.1404 54.2177 73.9681C54.6206 73.7959 55.0554 73.7113 55.4935 73.7201ZM45.351 74.3092V73.8885H51.3114V74.3092H50.7216C50.4725 74.3092 50.3479 74.4138 50.3479 74.6241V79.8581C50.3479 80.0997 50.4951 80.2197 50.7877 80.2197H51.3114V80.6406H47.9711V80.2197H48.4798C48.8009 80.2197 48.9615 80.0997 48.9615 79.8581V74.3092H47.8616C47.6571 74.2893 47.4515 74.3352 47.2749 74.4402C47.1601 74.5387 47.0802 74.6715 47.0467 74.819C46.9568 75.4347 46.9017 76.055 46.8817 76.6769C46.845 77.4811 46.7588 78.2822 46.6235 79.0757C46.5587 79.5488 46.3616 79.994 46.0549 80.36C45.9345 80.4936 45.7873 80.6001 45.6228 80.6727C45.4583 80.7452 45.2803 80.7821 45.1005 80.7809C44.9664 80.7896 44.8319 80.7686 44.7069 80.7193C44.5818 80.67 44.4692 80.5936 44.3772 80.4956C44.2132 80.3142 44.1237 80.0777 44.1266 79.8332C44.1186 79.6165 44.1919 79.4047 44.3322 79.2393C44.3967 79.163 44.4775 79.1023 44.5687 79.0615C44.6599 79.0208 44.7591 79.0011 44.8589 79.0039C45.0028 79.0091 45.1427 79.0527 45.2641 79.1302C45.3415 79.1864 45.4034 79.2614 45.4438 79.3481C45.4842 79.4349 45.5019 79.5305 45.4951 79.6259C45.5071 79.816 45.5731 79.9111 45.6961 79.9111C45.9303 79.9111 46.1099 79.5355 46.2349 78.7842C46.3674 77.9324 46.4301 77.0713 46.4225 76.2093C46.4225 75.3909 46.361 74.8693 46.2379 74.6444C46.1722 74.5319 46.0757 74.4406 45.9597 74.3812C45.8438 74.3218 45.7133 74.2968 45.5836 74.3092L45.351 74.3092ZM41.397 74.3373H38.921V79.8394C38.921 80.0935 39.0186 80.2197 39.2152 80.2197H39.7404V80.6406H36.7151V80.2197H37.2149C37.428 80.2197 37.5345 80.0935 37.5345 79.841V74.7441C37.5436 74.6858 37.539 74.6262 37.521 74.57C37.503 74.5138 37.4722 74.4626 37.431 74.4204C37.3897 74.3782 37.3392 74.3462 37.2835 74.3269C37.2277 74.3076 37.1683 74.3015 37.1098 74.3092H36.7151V73.8885H43.6029V74.3092H43.2082C42.9246 74.3092 42.7836 74.4339 42.7836 74.6834V79.7895C42.7836 80.0763 42.9096 80.2197 43.1602 80.2197H43.6029V80.6406H40.5777V80.2197H41.0504C41.2815 80.2197 41.397 80.0935 41.397 79.8394L41.397 74.3373ZM31.0159 78.8995L31.1209 78.6268L33.5549 74.9078V74.7472C33.5549 74.5617 33.5174 74.4433 33.4438 74.3904C33.349 74.3306 33.2377 74.3022 33.1258 74.3092H32.7356V73.8885H35.7607V74.3092H35.3616C35.0811 74.3092 34.9415 74.4339 34.9415 74.6834V79.7895C34.9415 80.0763 35.0661 80.2197 35.3137 80.2197H35.7607V80.6406H32.7356V80.2197H33.2082C33.4394 80.2197 33.5549 80.0935 33.5549 79.8394V75.7043L33.4574 75.9521L31.0159 79.6492V79.841C31.0159 80.0935 31.1134 80.2197 31.31 80.2197H31.8353V80.6406H28.8101V80.2197H29.3097C29.5229 80.2197 29.6295 80.0935 29.6294 79.841V74.7441C29.6384 74.6858 29.6338 74.6262 29.6158 74.57C29.5978 74.5139 29.567 74.4626 29.5258 74.4204C29.4846 74.3782 29.4341 74.3462 29.3784 74.3269C29.3226 74.3076 29.2632 74.3015 29.2047 74.3092H28.8101V73.8885H31.8353V74.3092H31.3836C31.139 74.3092 31.0159 74.4153 31.0159 74.6288L31.0159 78.8995ZM25.5042 80.1637V74.3092H24.466C24.2149 74.2893 23.9633 74.3417 23.7411 74.4604C23.671 74.5051 23.6105 74.5632 23.5631 74.6314C23.5157 74.6996 23.4824 74.7766 23.465 74.8579C23.4078 75.2081 23.3732 75.5616 23.3615 75.9162C23.327 76.5616 23.2824 77.1347 23.2279 77.6354C23.1684 78.154 23.0202 78.6586 22.7898 79.1271C22.6097 79.5545 22.3027 79.9163 21.9104 80.1637L25.5042 80.1637ZM27.8542 73.8885V74.3092H27.257C27.0124 74.3092 26.8909 74.4138 26.8909 74.6241V79.7225C26.8909 80.0483 27.0625 80.2109 27.4055 80.2104H27.8542V82.3239H27.386C27.3649 82.0196 27.3023 81.7197 27.2 81.4324C27.1418 81.2962 27.0559 81.1738 26.9476 81.0728C26.8393 80.9719 26.7111 80.8947 26.5712 80.8463C26.262 80.712 25.9286 80.642 25.5914 80.6406H22.7508C22.3281 80.6244 21.9116 80.7458 21.5638 80.9866C21.2487 81.2158 21.0826 81.6554 21.0656 82.3053H20.6064L20.6694 80.2104C20.9827 80.2111 21.292 80.139 21.5727 80C21.8498 79.8157 22.0705 79.5583 22.2105 79.2564C22.4358 78.8144 22.5912 78.3402 22.6712 77.8506C22.7835 77.2136 22.8368 76.5676 22.8302 75.9209C22.8696 75.476 22.8038 75.028 22.6382 74.6132C22.5531 74.5032 22.4408 74.4173 22.3124 74.364C22.184 74.3107 22.0438 74.2918 21.9059 74.3092H21.8129V73.8885L27.8542 73.8885Z" fill="#E3000F"/>
<path d="M29.5879 72.2202H72.8097" stroke="#1A1A18" stroke-width="0.1828" stroke-miterlimit="22.9256"/>
<defs>
<linearGradient id="paint0_linear_306_117" x1="2.67355" y1="43.6091" x2="102.113" y2="54.3565" gradientUnits="userSpaceOnUse">
<stop/>
<stop offset="1" stop-color="#372483"/>
</linearGradient>
<linearGradient id="paint1_linear_306_117" x1="71.9393" y1="54.8974" x2="86.793" y2="54.8974" gradientUnits="userSpaceOnUse">
<stop/>
<stop offset="1" stop-color="#372483"/>
</linearGradient>
<linearGradient id="paint2_linear_306_117" x1="59.3562" y1="38.5675" x2="76.1531" y2="38.5675" gradientUnits="userSpaceOnUse">
<stop/>
<stop offset="1" stop-color="#372483"/>
</linearGradient>
<linearGradient id="paint3_linear_306_117" x1="56.499" y1="28.6228" x2="79.3243" y2="28.6228" gradientUnits="userSpaceOnUse">
<stop/>
<stop offset="1" stop-color="#372483"/>
</linearGradient>
<linearGradient id="paint4_linear_306_117" x1="25.3458" y1="38.653" x2="58.8741" y2="38.653" gradientUnits="userSpaceOnUse">
<stop/>
<stop offset="1" stop-color="#372483"/>
</linearGradient>
<linearGradient id="paint5_linear_306_117" x1="20.0808" y1="52.8593" x2="58.7644" y2="52.8593" gradientUnits="userSpaceOnUse">
<stop stop-color="#E3000F"/>
<stop offset="0.31" stop-color="#E3000F"/>
<stop offset="0.35206" stop-color="#E51422"/>
<stop offset="0.53667" stop-color="#EE666F"/>
<stop offset="0.70018" stop-color="#F5A8AD"/>
<stop offset="0.83656" stop-color="#FBD7D9"/>
<stop offset="0.94061" stop-color="#FEF4F5"/>
<stop offset="1" stop-color="white"/>
</linearGradient>
<linearGradient id="paint6_linear_306_117" x1="8.6767" y1="67.4528" x2="98.2976" y2="40.7375" gradientUnits="userSpaceOnUse">
<stop/>
<stop offset="1" stop-color="#372483"/>
</linearGradient>
</defs>
</svg>
