<svg width="16" height="19" viewBox="0 0 16 19" fill="none" xmlns="http://www.w3.org/2000/svg">
<path fill-rule="evenodd" clip-rule="evenodd" d="M9.414 17.9L13.657 13.657C14.7758 12.5381 15.5377 11.1127 15.8463 9.56081C16.155 8.00898 15.9965 6.40047 15.391 4.93868C14.7855 3.4769 13.7601 2.22749 12.4445 1.34846C11.1289 0.469425 9.58224 0.000244141 8 0.000244141C6.41777 0.000244141 4.87107 0.469425 3.55548 1.34846C2.2399 2.22749 1.21452 3.4769 0.609007 4.93868C0.00349349 6.40047 -0.154957 8.00898 0.153691 9.56081C0.462339 11.1127 1.22422 12.5381 2.343 13.657L6.587 17.9C6.96202 18.2746 7.47042 18.485 8.0005 18.485C8.53059 18.485 9.03899 18.2746 9.414 17.9ZM11 8C11 9.65685 9.65685 11 8 11C6.34315 11 5 9.65685 5 8C5 6.34315 6.34315 5 8 5C9.65685 5 11 6.34315 11 8Z" fill="white"/>
</svg>
