<svg width="10" height="16" viewBox="0 0 10 16" fill="none" xmlns="http://www.w3.org/2000/svg">
<path fill-rule="evenodd" clip-rule="evenodd" d="M9 0H1C0.447715 0 0 0.447715 0 1V15C0 15.5523 0.447715 16 1 16H9C9.55229 16 10 15.5523 10 15V1C10 0.447715 9.55229 0 9 0ZM3.5 1C3.5 0.723858 3.72386 0.5 4 0.5H6C6.27614 0.5 6.5 0.723858 6.5 1C6.5 1.27614 6.27614 1.5 6 1.5H4C3.72386 1.5 3.5 1.27614 3.5 1ZM6 13C6 12.4477 5.55228 12 5 12C4.44772 12 4 12.4477 4 13V13.01C4 13.5623 4.44772 14.01 5 14.01C5.55228 14.01 6 13.5623 6 13.01V13Z" fill="white"/>
</svg>
