<svg width="40" height="17" viewBox="0 0 40 17" fill="none" xmlns="http://www.w3.org/2000/svg">
<path d="M39.3337 6.03477H37.2602C36.2132 2.96754 33.2769 0.749512 29.8204 0.749512C26.284 0.749512 23.2886 3.06911 22.3079 6.24671C21.6876 5.84213 20.8921 5.59152 19.9999 5.59152C19.1079 5.59152 18.3125 5.84205 17.6921 6.24663C16.7113 3.06903 13.7153 0.749593 10.1791 0.749593C6.72248 0.749593 3.78649 2.96762 2.73968 6.03485H0.666992V7.62474H2.37896C2.34599 7.91257 2.32529 8.20403 2.32529 8.50042C2.32529 12.7741 5.84846 16.2504 10.1791 16.2504C14.5096 16.2504 18.0332 12.774 18.0332 8.50042C18.0332 8.45585 18.0273 8.41282 18.0264 8.36841H18.0321C18.0321 7.80713 18.8404 7.18141 20 7.18141C21.1599 7.18141 21.9678 7.80713 21.9678 8.36841H21.9738C21.973 8.41274 21.967 8.45585 21.967 8.50042C21.967 12.7741 25.4898 16.2504 29.8204 16.2504C34.151 16.2504 37.6745 12.774 37.6745 8.50042C37.6745 8.20403 37.6538 7.91257 37.6209 7.62474H39.3337V6.03477ZM10.1791 14.6606C6.73696 14.6606 3.93637 11.8968 3.93637 8.50042C3.93637 5.10322 6.73696 2.33948 10.1791 2.33948C13.6216 2.33948 16.4221 5.10322 16.4221 8.50042C16.4221 11.8968 13.6216 14.6606 10.1791 14.6606ZM29.8205 14.6606C26.3788 14.6606 23.5782 11.8968 23.5782 8.50042C23.5782 5.10322 26.3788 2.33948 29.8205 2.33948C33.263 2.33948 36.0635 5.10322 36.0635 8.50042C36.0635 11.8968 33.2629 14.6606 29.8205 14.6606Z" fill="white"/>
</svg>
