<svg width="24" height="24" viewBox="0 0 24 24" fill="none" xmlns="http://www.w3.org/2000/svg">
<g clip-path="url(#clip0_306_108)">
<path d="M12 22C17.5228 22 22 17.5228 22 12C22 6.47715 17.5228 2 12 2C6.47715 2 2 6.47715 2 12C2 17.5228 6.47715 22 12 22Z" stroke="#D9BCA5" stroke-width="2" stroke-linecap="round" stroke-linejoin="round"/>
<path d="M10.856 14.263C10.856 13.927 10.8817 13.612 10.933 13.318C10.989 13.024 11.0917 12.744 11.241 12.478C11.367 12.226 11.514 12.023 11.682 11.869C11.8547 11.7103 12.0413 11.5563 12.242 11.407C12.4473 11.253 12.662 11.057 12.886 10.819C13.0727 10.6137 13.1963 10.406 13.257 10.196C13.3223 9.986 13.355 9.75967 13.355 9.517C13.355 9.33967 13.334 9.174 13.292 9.02C13.25 8.866 13.18 8.733 13.082 8.621C12.9327 8.43433 12.7437 8.30367 12.515 8.229C12.2863 8.14967 12.0483 8.11 11.801 8.11C11.577 8.11 11.3623 8.14033 11.157 8.201C10.9563 8.26167 10.7883 8.355 10.653 8.481C10.5083 8.60233 10.401 8.754 10.331 8.936C10.2657 9.11333 10.2353 9.307 10.24 9.517H8.7C8.73733 9.07833 8.84933 8.66767 9.036 8.285C9.22267 7.90233 9.47467 7.592 9.792 7.354C10.0627 7.13933 10.3707 6.98067 10.716 6.878C11.0613 6.77067 11.4067 6.717 11.752 6.717C12.2467 6.717 12.7133 6.794 13.152 6.948C13.5953 7.102 13.964 7.35167 14.258 7.697C14.4727 7.93967 14.6337 8.21733 14.741 8.53C14.853 8.838 14.909 9.15767 14.909 9.489C14.909 9.93233 14.8133 10.343 14.622 10.721C14.4353 11.099 14.195 11.4443 13.901 11.757C13.747 11.9203 13.5907 12.0697 13.432 12.205C13.2733 12.3357 13.1263 12.464 12.991 12.59C12.8557 12.716 12.7437 12.8537 12.655 13.003C12.529 13.2177 12.4567 13.4113 12.438 13.584C12.4193 13.752 12.41 13.9783 12.41 14.263H10.856ZM10.863 17V15.306H12.41V17H10.863Z" fill="#D3B6A0"/>
</g>
<defs>
<clipPath id="clip0_306_108">
<rect width="24" height="24" fill="white"/>
</clipPath>
</defs>
</svg>
